<?xml version="1.0" encoding="UTF-8" standalone="no"?>
<!-- Generator: Adobe Illustrator 18.0.0, SVG Export Plug-In . SVG Version: 6.00 Build 0)  -->
<svg xmlns:dc="http://purl.org/dc/elements/1.1/" xmlns:cc="http://creativecommons.org/ns#" xmlns:rdf="http://www.w3.org/1999/02/22-rdf-syntax-ns#" xmlns:svg="http://www.w3.org/2000/svg" xmlns="http://www.w3.org/2000/svg" xmlns:sodipodi="http://sodipodi.sourceforge.net/DTD/sodipodi-0.dtd" xmlns:inkscape="http://www.inkscape.org/namespaces/inkscape" version="1.1" x="0px" y="0px" viewBox="0 0 226.80001 76.400004" enable-background="new 0 0 232.4 99.2" xml:space="preserve" id="svg2" inkscape:version="0.91 r13725" sodipodi:docname="centreValLoire.svg" width="226.8" height="76.400002"><metadata id="metadata146"><rdf:RDF><cc:Work rdf:about=""><dc:format>image/svg+xml</dc:format><dc:type rdf:resource="http://purl.org/dc/dcmitype/StillImage"/><dc:title/></cc:Work></rdf:RDF></metadata><defs id="defs144"/><sodipodi:namedview pagecolor="#ffffff" bordercolor="#666666" borderopacity="1" objecttolerance="10" gridtolerance="10" guidetolerance="10" inkscape:pageopacity="0" inkscape:pageshadow="2" inkscape:window-width="1680" inkscape:window-height="1026" id="namedview142" showgrid="false" fit-margin-bottom="-0.1" fit-margin-top="0" fit-margin-left="0" fit-margin-right="0" inkscape:zoom="1.3511188" inkscape:cx="113.4" inkscape:cy="47.583425" inkscape:window-x="0" inkscape:window-y="24" inkscape:window-maximized="1" inkscape:current-layer="svg2"/><g style="display:none" display="none" id="fond" transform="translate(-2.8,-2.8)"><rect style="display:inline;fill:#706f6f" id="rect6" height="147.2" width="294" display="inline" y="-28.799999" x="-24"/></g><g id="g11" transform="translate(-2.8,-2.8)"><path d="M 222.5,79.3 9.9,79.3 C 6,79.3 2.8,76.1 2.8,72.2 L 2.8,9.9 C 2.8,6 6,2.8 9.9,2.8 l 212.6,0 c 3.9,0 7.1,3.2 7.1,7.1 l 0,62.3 c 0,3.9 -3.2,7.1 -7.1,7.1 z" id="path13" inkscape:connector-curvature="0" style="fill:#29235c"/></g><path d="m 76.9,73.6 -68.8,0 C 5.2,73.6 2.8,71.2 2.8,68.3 L 2.8,8.2 C 2.8,5.3 5.2,2.9 8.1,2.9 l 68.8,0 c 2.9,0 5.3,2.4 5.3,5.3 l 0,60.1 c 0,2.9 -2.3,5.3 -5.3,5.3 z" id="path15" inkscape:connector-curvature="0" style="fill:#ffffff"/><g id="logo_-_copie" transform="translate(-2.8,-2.8)"><path style="fill:#13a538" inkscape:connector-curvature="0" id="path18" d="m 53.5,48.6 c -1.4,0 -2.8,-0.1 -4.2,-0.2 -3.2,-0.3 -6.4,-0.8 -9.4,-1.4 -2.5,-0.4 -4.9,-0.8 -7.3,-1.1 3.4,3.5 6.7,7.1 9.2,11.3 0.6,1 0.2,2 -0.6,2.5 l 2.3,2.8 c 4,-4.7 8.5,-8.9 12.8,-13.4 0.2,-0.2 0.4,-0.4 0.6,-0.6 -1.1,0 -2.2,0.1 -3.4,0.1 z"/><g id="g20"><path style="fill:#29235c" inkscape:connector-curvature="0" id="path22" d="m 26.8,40 c -2.3,-2.5 -4.5,-5.1 -6.3,-8.1 -3,-5 -4.6,-12.1 0,-16.6 4.9,-4.8 14.3,-1.9 16.6,4.2 0.9,2.3 4.6,1.3 3.8,-1 -2.3,-6.2 -8.3,-9.6 -14.8,-9.3 -7.2,0.4 -11.9,6 -12.3,12.9 -0.4,7.2 3.2,13 7.9,18.4 C 23.3,40.2 25,40 26.8,40 Z"/><path style="fill:#29235c" inkscape:connector-curvature="0" id="path24" d="m 32.6,45.9 c -2,-0.2 -4.1,-0.4 -6.1,-0.4 4.5,4.5 9.1,8.9 11.9,13.6 1.3,2.2 4.6,0.2 3.4,-2 C 39.3,53 36,49.4 32.6,45.9 Z"/></g><g id="g26"><path style="fill:#29235c" inkscape:connector-curvature="0" id="path28" d="m 56.9,48.5 c -0.2,0.2 -0.4,0.4 -0.6,0.6 -5.8,6.1 -12.1,11.7 -16.9,18.7 -1.4,2.1 1.9,4 3.4,2 5.7,-8.2 13.5,-14.6 20,-22.1 -1.9,0.3 -3.9,0.6 -5.9,0.8 z"/><path style="fill:#29235c" inkscape:connector-curvature="0" id="path30" d="m 47.8,41.3 c 2.5,-0.2 2.5,-4.1 0,-3.9 -5,0.4 -8.9,-4 -6.8,-9 1.5,-3.6 6.1,-6.1 9.5,-7.7 3.6,-1.7 7.7,-2.3 11.6,-2.1 5.5,0.3 7.6,4.5 6.8,9.6 -0.6,4 -2.4,7.7 -4.6,11.1 2,-0.7 3.9,-1.6 5.9,-2.7 3.3,-7 4.9,-15.7 -2,-20.2 -3.8,-2.5 -9.2,-1.9 -13.4,-1.1 -5,0.9 -9.6,3.5 -13.4,6.8 -3.9,3.3 -5.8,7.7 -4.2,12.7 1.4,4.4 6.2,6.9 10.6,6.5 z"/></g><path style="fill:#90d4f6" inkscape:connector-curvature="0" id="path32" d="m 76.4,48.1 c -3.6,0 -7,0.4 -10.4,1.4 -1.6,0.4 -2,1.9 -1.6,3.1 -1.6,0.7 -3.2,1.5 -4.7,2.4 -1.7,0.9 -1.5,2.8 -0.3,3.8 -0.6,0.2 -1.3,0.5 -1.9,0.7 -1.6,0.6 -2,2.2 -1.5,3.5 l -5.1,0.7 c -2,0.3 -2.5,3.7 -0.6,4.5 0.3,0.1 0.6,0.2 0.9,0.4 1,0.4 1.9,0.2 2.6,-0.3 7,-0.9 13.9,-1.9 20.9,-2.8 3,-0.4 1.8,-4.5 -0.6,-4.8 -1.3,-0.2 -2.7,-0.3 -4,-0.4 1.3,-0.5 2.6,-1 3.9,-1.4 2.4,-0.9 2.2,-4 0,-4.7 1.1,-0.4 2.1,-0.8 3.2,-1.1 2.4,-1 2,-4.9 -0.8,-5 z"/><path style="fill:#90d4f6" inkscape:connector-curvature="0" id="path34" d="m 36.4,63.9 c -0.8,-0.5 -1.5,-0.8 -2.2,-1 1.8,-1.4 0.6,-4.1 -1.6,-4.3 -0.2,0 -0.3,0 -0.5,0 0.5,-0.4 1,-0.8 1.4,-1.2 1.6,-1.3 0.4,-4.4 -1.7,-4.2 -2.6,0.3 -5.2,0.7 -7.8,1 -3,0.4 -3.1,5 -0.2,4.9 -0.8,1.1 -0.2,2.5 0.8,3.3 -1.1,0.5 -2.2,1.1 -3.3,1.5 -1.8,0.8 -1.5,2.8 -0.3,3.9 -1.6,0.5 -3.1,1 -4.7,1.5 -3,0.9 -1.7,5.6 1.3,4.7 6.1,-1.9 12.1,-3.7 18.2,-5.6 2,-0.7 2.4,-3.4 0.6,-4.5 z"/><path style="fill:#009fe3" inkscape:connector-curvature="0" id="path36" d="M 47.3,41.3 C 43,41.4 38.5,39 37.2,34.7 35.6,29.7 37.5,25.3 41.4,22 L 40,20.6 c -1,0.4 -2.3,0.1 -2.8,-1.2 -2.2,-6.1 -11.6,-9 -16.6,-4.2 -4.6,4.5 -3,11.7 0,16.6 1.8,2.9 4,5.5 6.3,8.1 0.2,0 0.5,0 0.7,0 3.9,0 7.9,0.5 11.3,1.1 3.2,0.5 6.1,0.8 8.9,0.9 l -0.5,-0.6 z"/><path style="fill:#f4ce2f" inkscape:connector-curvature="0" id="path38" d="m 47.8,37.4 c 2.5,-0.2 2.5,3.7 0,3.9 -0.2,0 -0.4,0 -0.6,0 0,0 0,0 0,0 l 0.5,0.6 c 0.5,0 1,0 1.5,0 0.7,0 1.3,0 1.9,0 0.2,0 0.3,0 0.5,0 0.5,0 1,-0.1 1.4,-0.1 0.2,0 0.3,0 0.5,0 0.5,0 1,-0.1 1.4,-0.2 0.1,0 0.3,0 0.4,-0.1 0.5,-0.1 1,-0.1 1.5,-0.2 0.1,0 0.2,0 0.3,-0.1 0.5,-0.1 1,-0.2 1.6,-0.3 0.1,0 0.1,0 0.2,-0.1 0.5,-0.1 1.1,-0.3 1.6,-0.4 0,0 0.1,0 0.1,0 0.6,-0.2 1.1,-0.3 1.7,-0.5 0,0 0,0 0.1,0 0.6,-0.2 1.2,-0.4 1.8,-0.6 2.2,-3.4 4,-7.1 4.6,-11.1 0.8,-5.1 -1.3,-9.3 -6.8,-9.6 -3.4,-0.2 -7,0.3 -10.2,1.5 l -2.6,1.2 c -3.2,1.6 -6.9,3.9 -8.2,7.1 -2.1,5 1.8,9.4 6.8,9 z"/><path style="fill:#90d4f6" inkscape:connector-curvature="0" id="path40" d="m 49.4,47.5 c 1.3,0.1 2.7,0.2 4.1,0.2 9.5,0 19.7,-3 26.2,-10.4 1.4,-1.7 0.1,-4.4 -1.6,-4.4 -0.4,0 -0.7,0.1 -1.1,0.4 -9.3,6.8 -18,9.5 -27.8,9.5 -3.4,0 -6.8,-0.3 -10.5,-0.9 -3.8,-0.6 -7.5,-1.1 -11.2,-1.1 -6.6,0 -12.9,1.5 -18.5,6.7 -0.8,0.7 -0.1,2 0.7,2 0.2,0 0.3,0 0.5,-0.1 5.3,-3.6 10.7,-4.7 16.1,-4.7 7.6,-0.1 15.2,2.1 23.1,2.8 z"/></g><g id="g43" transform="translate(-2.8,-2.8)"><path d="m 109.6,17.1 c -0.9,-0.5 -2.6,-0.7 -4,-0.7 -5.5,0 -9.1,3.9 -9.1,8.4 0,3.8 3.2,6 6.4,6 1.7,0 3.4,-0.5 4.8,-1.2 l -0.6,2.8 c -1.2,0.6 -2.4,0.9 -4.8,0.9 -4,0 -8.6,-2.8 -8.6,-8.4 0,-6 4.7,-10.9 12.1,-10.9 1.7,0 3.5,0.3 4.4,0.7 l -0.6,2.4 z" id="path45" inkscape:connector-curvature="0" style="fill:#ffffff"/><path d="m 113.7,28.4 c 0.2,1.5 1.2,2.5 3.2,2.5 1.4,0 2.8,-0.5 3.9,-1.4 l -0.7,2.8 c -0.9,0.6 -2.2,0.9 -3.4,0.9 -3.3,0 -5.8,-2 -5.8,-5.6 0,-4.8 4.4,-8.2 8.2,-8.2 2.4,0 3.8,1.3 3.8,3.2 -0.1,3.7 -4.1,5.8 -9.2,5.8 z m 5.1,-6.7 c -1.8,0 -4.5,1.6 -5.1,4.6 3.7,0 6.4,-1.7 6.4,-3.3 0.1,-0.7 -0.2,-1.3 -1.3,-1.3 z" id="path47" inkscape:connector-curvature="0" style="fill:#ffffff"/><path d="m 137.3,23.6 -1.6,9.2 -2.6,0 1.6,-9.3 c 0,-0.1 0,-0.3 0,-0.4 0,-0.8 -0.5,-1.6 -1.5,-1.6 -2,0 -4.5,1.6 -5.4,6.7 l -0.8,4.6 -2.6,0 2.3,-13.2 2.2,0 -0.3,2.5 0.1,0 c 1.2,-1.7 2.5,-2.8 5.1,-2.8 1.9,0 3.7,1.4 3.7,3.6 -0.1,0.3 -0.1,0.5 -0.2,0.7 z" id="path49" inkscape:connector-curvature="0" style="fill:#ffffff"/><path d="m 149.5,21.7 -4.2,0 -1.3,7.5 c -0.2,1 0.5,1.6 1.3,1.6 0.5,0 0.8,-0.1 1.2,-0.4 l -0.5,2.3 c -0.4,0.2 -0.9,0.3 -1.6,0.3 -1.9,0 -3.4,-1.5 -3,-4 l 1.3,-7.3 -2.6,0 0.3,-2 2.6,0 0.5,-2.7 2.8,-1.4 -0.7,4 4.3,0 -0.4,2.1 z" id="path51" inkscape:connector-curvature="0" style="fill:#ffffff"/><path d="m 159.8,21.8 c -2.2,0 -5.1,2.6 -6,7.3 l -0.7,3.8 -2.6,0 2.3,-13.2 2.2,0 -0.5,3.6 0.1,0 c 0.8,-2.5 2.8,-3.8 5.2,-3.8 l 0.5,2.2 c 0,0.1 -0.3,0.1 -0.5,0.1 z" id="path53" inkscape:connector-curvature="0" style="fill:#ffffff"/><path d="m 163.8,28.4 c 0.2,1.5 1.2,2.5 3.2,2.5 1.4,0 2.8,-0.5 3.9,-1.4 l -0.7,2.8 c -0.9,0.6 -2.2,0.9 -3.4,0.9 -3.3,0 -5.8,-2 -5.8,-5.6 0,-4.8 4.4,-8.2 8.2,-8.2 2.4,0 3.8,1.3 3.8,3.2 0,3.7 -4,5.8 -9.2,5.8 z m 5.2,-6.7 c -1.8,0 -4.5,1.6 -5.1,4.6 3.7,0 6.4,-1.7 6.4,-3.3 0.1,-0.7 -0.2,-1.3 -1.3,-1.3 z" id="path55" inkscape:connector-curvature="0" style="fill:#ffffff"/><path d="m 182.8,25.8 -7.3,0 0.4,-2.1 7.3,0 -0.4,2.1 z" id="path57" inkscape:connector-curvature="0" style="fill:#ffffff"/><path d="m 99.5,64.6 -0.9,0 -4.1,-18.8 2.8,0 1.9,8.8 c 0.3,1.3 0.6,2.8 0.8,4.4 l 0.1,0 c 0.8,-1.5 1.6,-3.1 2.3,-4.4 l 5,-8.8 2.8,0 -10.7,18.8 z" id="path59" inkscape:connector-curvature="0" style="fill:#ffffff"/><path d="m 117.9,64.4 -2.2,0 0.3,-2.5 -0.1,0 c -1.1,2.1 -2.9,2.8 -4.7,2.8 -2.1,0 -4.2,-1.5 -4.2,-4.3 0,-5.9 4.8,-9.3 9.3,-9.3 1.6,0 2.9,0.1 3.8,0.3 l -2.2,13 z m -1.7,-11.1 c -3.3,0 -6.4,3 -6.4,6.9 0,1.6 0.8,2.3 2.1,2.3 1.7,0 4.1,-2.1 4.7,-5.5 l 0.7,-3.7 c -0.3,0 -0.6,0 -1.1,0 z" id="path61" inkscape:connector-curvature="0" style="fill:#ffffff"/><path d="m 124.2,61.1 c 0,0.2 -0.1,0.3 -0.1,0.5 0,1 0.6,1.5 1.3,1.7 l -1.7,1.7 c -1,-0.2 -2.2,-1.2 -2.2,-3.1 0,-0.3 0,-0.6 0.1,-1 l 3,-17.1 2.6,0 -3,17.3 z" id="path63" inkscape:connector-curvature="0" style="fill:#ffffff"/><path d="m 144.9,64.4 -2.2,0 0.3,-2.5 -0.1,0 c -1.1,2.1 -2.9,2.8 -5,2.8 -2.1,0 -4.2,-1.7 -4.2,-4.9 0,-5.3 4.7,-8.7 9,-8.7 0.9,0 1.4,0 1.9,0.1 l 1.3,-7.5 2.6,0 -3.6,20.7 z m -2.4,-11.1 c -3,0 -6.1,2.8 -6.1,6.5 0,1.8 1,2.7 2.4,2.7 1.8,0 4.1,-2.1 4.7,-5.5 l 0.7,-3.6 c -0.4,-0.1 -1,-0.1 -1.7,-0.1 z" id="path65" inkscape:connector-curvature="0" style="fill:#ffffff"/><path d="m 151.1,59.8 c 0.2,1.5 1.2,2.5 3.2,2.5 1.4,0 2.8,-0.5 3.9,-1.4 l -0.7,2.8 c -0.9,0.6 -2.2,0.9 -3.4,0.9 -3.3,0 -5.8,-2 -5.8,-5.6 0,-4.8 4.4,-8.2 8.2,-8.2 2.4,0 3.8,1.3 3.8,3.2 -0.1,3.7 -4.1,5.8 -9.2,5.8 z m 5.1,-6.6 c -1.8,0 -4.5,1.6 -5.1,4.6 3.7,0 6.4,-1.7 6.4,-3.3 0.1,-0.7 -0.2,-1.3 -1.3,-1.3 z" id="path67" inkscape:connector-curvature="0" style="fill:#ffffff"/><path d="m 177.7,64.4 -11,0 3.3,-18.5 2.8,0 -2.8,16.2 8.2,0 -0.5,2.3 z" id="path69" inkscape:connector-curvature="0" style="fill:#ffffff"/><path d="m 184.6,64.7 c -3.1,0 -5.4,-2 -5.4,-5.4 0,-4.7 3.8,-8.4 8.1,-8.4 3.1,0 5.4,2 5.4,5.4 0,4.7 -3.7,8.4 -8.1,8.4 z m 2.5,-11.5 c -2.6,0 -5.1,2.7 -5.1,5.8 0,2.2 1.1,3.3 3,3.3 2.6,0 5.1,-2.7 5.1,-5.8 0,-2.2 -1.2,-3.3 -3,-3.3 z" id="path71" inkscape:connector-curvature="0" style="fill:#ffffff"/><path d="m 196.7,64.4 -2.7,0 2.3,-13.2 2.7,0 -2.3,13.2 z m 1.4,-15.7 c -0.6,0 -1.4,-1 -1.4,-1.5 0,-0.6 1.4,-1.7 1.9,-1.7 0.6,0 1.4,1 1.4,1.5 0.1,0.5 -1.3,1.7 -1.9,1.7 z" id="path73" inkscape:connector-curvature="0" style="fill:#ffffff"/><path d="m 209.3,53.2 c -2.2,0 -5.1,2.6 -6,7.3 l -0.7,3.8 -2.6,0 2.3,-13.2 2.2,0 -0.5,3.6 0.1,0 c 0.8,-2.5 2.8,-3.8 5.2,-3.8 l 0.5,2.2 c -0.1,0.1 -0.4,0.1 -0.5,0.1 z" id="path75" inkscape:connector-curvature="0" style="fill:#ffffff"/><path d="m 212,59.8 c 0.2,1.5 1.2,2.5 3.2,2.5 1.4,0 2.8,-0.5 3.9,-1.4 l -0.7,2.8 c -0.9,0.6 -2.2,0.9 -3.4,0.9 -3.3,0 -5.8,-2 -5.8,-5.6 0,-4.8 4.4,-8.2 8.2,-8.2 2.4,0 3.8,1.3 3.8,3.2 0,3.7 -4,5.8 -9.2,5.8 z m 5.2,-6.6 c -1.8,0 -4.5,1.6 -5.1,4.6 3.7,0 6.4,-1.7 6.4,-3.3 0.1,-0.7 -0.2,-1.3 -1.3,-1.3 z" id="path77" inkscape:connector-curvature="0" style="fill:#ffffff"/></g><g id="repere" display="none" style="display:none" transform="translate(-2.8,-20.783439)"/></svg>