<?xml version="1.0" encoding="UTF-8" standalone="no"?>
<svg xmlns:dc="http://purl.org/dc/elements/1.1/" xmlns:cc="http://creativecommons.org/ns#" xmlns:rdf="http://www.w3.org/1999/02/22-rdf-syntax-ns#" xmlns:svg="http://www.w3.org/2000/svg" xmlns="http://www.w3.org/2000/svg" viewBox="0 0 202 203" height="203" width="202" xml:space="preserve" id="svg2" version="1.1"><defs id="defs6"/><g transform="matrix(1.33,0,0,-1.33,-291,928)" id="g10"><g transform="scale(0.1)" id="g12"><path id="path14" style="fill:#254aa5;fill-opacity:1;fill-rule:nonzero;stroke:none" d="M 2190,6980 H 3710 V 5960 H 2190 v 1020"/><path id="path16" style="fill:#fff200;fill-opacity:1;fill-rule:nonzero;stroke:none" d="m 2920,6760 30,20 30,-20 -10,40 30,20 h -40 l -10,40 -10,-40 h -40 l 30,-20 -10,-40"/><path id="path18" style="fill:#fff200;fill-opacity:1;fill-rule:nonzero;stroke:none" d="m 2750,6710 30,30 40,-30 -20,40 40,20 h -40 l -20,40 -10,-40 h -40 l 30,-20 -10,-40"/><path id="path20" style="fill:#fff200;fill-opacity:1;fill-rule:nonzero;stroke:none" d="m 2660,6690 -10,-40 h -40 l 30,-20 -10,-40 30,20 30,-20 -10,40 30,20 h -40 l -10,40"/><path id="path22" style="fill:#fff200;fill-opacity:1;fill-rule:nonzero;stroke:none" d="m 2620,6450 30,-30 -10,40 30,30 h -40 l -10,30 -20,-30 h -40 l 40,-30 -20,-40 40,30"/><path id="path24" style="fill:#fff200;fill-opacity:1;fill-rule:nonzero;stroke:none" d="m 2670,6320 -10,40 -10,-40 h -40 l 30,-30 -10,-30 30,20 30,-20 -10,30 30,30 h -40"/><path id="path26" style="fill:#fff200;fill-opacity:1;fill-rule:nonzero;stroke:none" d="m 2800,6200 -20,30 -10,-30 h -40 l 30,-30 -10,-40 30,30 40,-30 -20,40 40,30 h -40"/><path id="path28" style="fill:#fff200;fill-opacity:1;fill-rule:nonzero;stroke:none" d="m 2960,6150 -10,40 -10,-40 h -40 l 30,-20 -10,-40 30,20 30,-20 -10,40 30,20 h -40"/><path id="path30" style="fill:#fff200;fill-opacity:1;fill-rule:nonzero;stroke:none" d="m 3130,6200 -10,30 -20,-30 h -40 l 40,-30 -20,-40 40,30 30,-30 -10,40 30,30 h -40"/><path id="path32" style="fill:#fff200;fill-opacity:1;fill-rule:nonzero;stroke:none" d="m 3250,6320 -10,40 -10,-40 h -40 l 30,-30 -10,-30 30,20 30,-20 -10,30 30,30 h -40"/><path id="path34" style="fill:#fff200;fill-opacity:1;fill-rule:nonzero;stroke:none" d="m 3340,6490 h -40 l -20,30 -10,-30 h -40 l 30,-30 -10,-40 30,30 40,-30 -20,40 40,30"/><path id="path36" style="fill:#fff200;fill-opacity:1;fill-rule:nonzero;stroke:none" d="m 3210,6590 30,20 30,-20 -10,40 30,20 h -40 l -10,40 -10,-40 h -40 l 30,-20 -10,-40"/><path id="path38" style="fill:#fff200;fill-opacity:1;fill-rule:nonzero;stroke:none" d="m 3120,6810 -20,-40 h -40 l 40,-20 -10,-40 30,30 30,-30 -10,40 30,20 h -40 l -10,40"/><path id="path40" style="fill:#231f20;fill-opacity:1;fill-rule:nonzero;stroke:none" d="m 2240,5720 c 0,0 0,0 0,0 0,-10 0,-10 0,-10 0,0 0,0 0,0 0,0 0,0 0,0 h -30 v -30 h 30 c 0,0 0,0 0,0 0,0 0,0 0,0 0,0 0,0 0,0 0,0 0,0 0,0 0,-10 0,-10 0,-10 0,0 0,0 0,0 0,0 0,0 0,0 0,0 0,0 0,0 h -30 v -40 c 0,0 0,0 0,0 0,0 0,0 0,0 -10,0 -10,0 -10,0 0,0 0,0 0,0 0,0 0,0 0,0 0,0 0,0 0,0 -10,0 -10,0 -10,0 0,0 0,0 0,0 v 90 c 0,0 0,0 10,0 0,0 0,0 0,0 h 40 c 0,0 0,0 0,0 0,0 0,0 0,0 0,0 0,0 0,0 0,0 0,0 0,0"/><path id="path42" style="fill:#231f20;fill-opacity:1;fill-rule:nonzero;stroke:none" d="m 2330,5660 c 0,10 0,10 0,10 0,10 0,10 -10,10 0,0 0,10 0,10 -10,0 -10,0 -10,0 -10,0 -10,0 -10,0 0,0 -10,-10 -10,-10 0,0 0,0 0,-10 0,0 0,0 0,-10 0,0 0,0 0,-10 0,0 0,0 0,0 0,-10 10,-10 10,-10 0,0 0,0 10,0 0,0 0,0 10,0 0,0 0,0 0,0 0,10 10,10 10,10 0,10 0,10 0,10 m 10,0 c 0,0 0,-10 0,-10 0,-10 -10,-10 -10,-10 0,-10 0,-10 -10,-10 0,0 -10,0 -10,0 -10,0 -10,0 -20,0 0,0 0,0 -10,10 0,0 0,0 0,10 0,0 -10,10 -10,10 0,10 10,10 10,20 0,0 0,10 0,10 10,0 10,10 10,10 10,0 10,0 20,0 0,0 10,0 10,0 10,0 10,-10 10,-10 10,0 10,-10 10,-10 0,-10 0,-10 0,-20"/><path id="path44" style="fill:#231f20;fill-opacity:1;fill-rule:nonzero;stroke:none" d="m 2430,5630 c 0,0 0,0 0,0 0,0 0,0 0,0 0,0 0,0 0,0 0,0 0,0 0,0 0,0 0,0 0,0 -10,0 -10,0 -10,0 0,0 0,0 0,0 0,0 0,0 0,0 v 40 c 0,0 0,10 0,10 0,0 0,0 0,0 0,10 0,10 -10,10 0,0 0,0 0,0 0,0 -10,0 -10,0 0,-10 -10,-10 -10,-10 v -50 c 0,0 0,0 0,0 0,0 0,0 0,0 0,0 0,0 0,0 0,0 -10,0 -10,0 0,0 0,0 0,0 0,0 0,0 0,0 0,0 0,0 0,0 0,0 0,0 0,0 v 70 c 0,0 0,0 0,0 0,0 0,0 0,0 0,0 0,0 0,0 0,0 0,0 0,0 0,0 10,0 10,0 0,0 0,0 0,0 0,0 0,0 0,0 0,0 0,0 0,0 v -10 c 0,0 10,0 10,10 0,0 10,0 10,0 10,0 10,0 10,0 10,0 10,-10 10,-10 0,0 0,0 0,-10 0,0 0,0 0,-10 v -40"/><path id="path46" style="fill:#231f20;fill-opacity:1;fill-rule:nonzero;stroke:none" d="m 2520,5680 c 0,0 -10,0 -10,10 0,0 -10,0 -10,0 0,0 0,0 -10,0 0,0 0,-10 0,-10 0,0 0,0 0,-10 -10,0 -10,0 -10,-10 0,0 0,0 10,-10 0,0 0,0 0,0 0,-10 0,-10 0,-10 0,0 10,0 10,0 0,0 0,0 10,0 0,0 0,0 0,0 0,0 0,0 0,0 10,10 10,10 10,10 z m 10,-50 c 0,0 0,0 0,0 0,0 0,0 0,0 0,0 0,0 0,0 0,0 0,0 0,0 0,0 0,0 -10,0 0,0 0,0 0,0 0,0 0,0 0,0 0,0 0,0 0,0 v 10 c 0,0 -10,-10 -10,-10 0,0 -10,0 -10,0 -10,0 -10,0 -10,0 -10,0 -10,0 -10,10 0,0 -10,0 -10,10 0,0 0,10 0,10 0,10 0,10 0,20 0,0 10,10 10,10 0,0 0,10 10,10 0,0 10,0 10,0 0,0 10,0 10,0 0,0 10,-10 10,-10 v 40 c 0,0 0,0 0,0 0,0 0,0 0,0 0,0 0,0 0,0 0,0 10,0 10,0 0,0 0,0 0,0 0,0 0,0 0,0 0,0 0,0 0,0 0,0 0,0 0,0 v -100"/><path id="path48" style="fill:#231f20;fill-opacity:1;fill-rule:nonzero;stroke:none" d="m 2620,5650 c 0,0 0,-10 -10,-10 0,0 0,-10 0,-10 0,0 -10,0 -10,0 0,0 -10,0 -10,0 0,0 0,0 -10,0 0,0 0,0 0,0 0,0 -10,0 -10,0 0,0 0,0 0,0 0,0 0,0 0,0 0,10 0,10 0,10 0,0 0,0 0,0 0,0 0,0 0,0 0,0 0,0 0,0 0,0 0,0 0,0 0,0 0,0 0,0 0,0 10,0 10,0 0,0 0,0 0,0 0,0 10,0 10,0 0,0 0,0 10,0 0,0 0,0 0,0 0,0 0,0 0,0 0,0 0,10 0,10 0,0 0,0 0,0 0,0 0,0 0,10 0,0 0,0 -10,0 0,0 0,0 0,0 0,0 -10,0 -10,0 0,0 0,10 0,10 -10,0 -10,0 -10,0 0,0 0,10 0,10 0,0 0,10 0,10 0,0 0,0 10,0 0,10 0,10 0,10 10,0 10,0 10,0 10,0 10,0 10,0 0,0 0,0 0,0 10,0 10,0 10,0 0,0 0,0 0,0 0,-10 0,-10 0,-10 0,0 0,0 0,0 0,0 0,0 0,0 0,0 0,0 0,0 0,0 0,0 0,0 0,0 0,0 0,0 0,0 0,0 0,0 0,0 0,0 0,0 0,0 0,0 0,0 0,0 0,0 0,0 -10,0 -10,0 -10,0 0,0 0,0 -10,0 0,0 0,0 0,0 0,0 0,0 0,0 -10,0 -10,0 -10,-10 0,0 0,0 0,0 0,0 0,0 0,0 0,-10 10,-10 10,-10 0,0 0,0 0,0 0,0 10,0 10,0 0,0 0,0 10,-10 0,0 0,0 0,0 0,0 0,0 0,0 10,-10 10,-10 10,-10"/><path id="path50" style="fill:#231f20;fill-opacity:1;fill-rule:nonzero;stroke:none" d="m 2790,5630 c 0,0 0,0 0,0 0,0 0,0 0,0 0,0 0,0 0,0 0,0 -10,0 -10,0 h -40 c 0,0 0,0 0,0 -10,0 -10,0 -10,0 v 90 c 0,0 0,0 10,0 0,0 0,0 0,0 h 40 c 0,0 0,0 10,0 0,0 0,0 0,0 0,0 0,0 0,0 0,0 0,0 0,0 0,0 0,0 0,0 0,0 0,-10 0,-10 0,0 0,0 0,0 -10,0 -10,0 -10,0 h -30 v -30 h 30 c 0,0 0,0 0,0 0,0 0,0 0,0 0,0 0,0 0,0 0,0 0,0 0,0 0,0 0,0 0,0 0,0 0,-10 0,-10 0,0 0,0 0,0 0,0 0,0 0,0 h -30 v -30 h 30 c 0,0 10,0 10,0 0,0 0,0 0,0 0,0 0,0 0,0 0,0 0,-10 0,-10"/><path id="path52" style="fill:#231f20;fill-opacity:1;fill-rule:nonzero;stroke:none" d="m 2880,5630 c 0,0 0,0 0,0 0,0 0,0 0,0 0,0 0,0 0,0 0,0 0,0 0,0 0,0 -10,0 -10,0 0,0 0,0 0,0 0,0 0,0 0,0 0,0 0,0 0,0 v 10 c 0,0 -10,-10 -10,-10 0,0 -10,0 -10,0 -10,0 -10,0 -10,0 -10,0 -10,0 -10,10 0,0 0,0 0,0 0,10 0,10 0,20 v 40 c 0,0 0,0 0,0 0,0 0,0 0,0 0,0 0,0 0,0 0,0 0,0 0,0 0,0 0,0 0,0 10,0 10,0 10,0 0,0 0,0 0,0 0,0 0,0 0,0 v -40 c 0,-10 0,-10 0,-10 0,0 0,-10 0,-10 0,0 0,0 10,0 0,0 0,0 0,0 0,0 10,0 10,0 0,0 10,10 10,10 v 50 c 0,0 0,0 0,0 0,0 0,0 0,0 0,0 0,0 0,0 0,0 0,0 10,0 0,0 0,0 0,0 0,0 0,0 0,0 0,0 0,0 0,0 0,0 0,0 0,0 v -70"/><path id="path54" style="fill:#231f20;fill-opacity:1;fill-rule:nonzero;stroke:none" d="m 2960,5690 c 0,0 0,0 0,0 0,0 0,0 0,0 0,0 0,0 0,0 0,0 0,0 0,0 0,0 0,0 0,0 0,0 0,0 0,0 0,0 0,0 -10,0 0,0 0,0 0,0 0,0 0,0 0,0 0,0 0,0 -10,0 0,-10 0,-10 0,-10 0,0 0,0 0,-10 v -40 c 0,0 0,0 0,0 0,0 0,0 -10,0 0,0 0,0 0,0 0,0 0,0 0,0 0,0 0,0 0,0 0,0 0,0 0,0 -10,0 -10,0 -10,0 0,0 0,0 0,0 v 70 c 0,0 0,0 0,0 0,0 0,0 10,0 0,0 0,0 0,0 0,0 0,0 0,0 0,0 0,0 0,0 0,0 0,0 0,0 0,0 0,0 0,0 0,0 0,0 0,0 v -10 c 10,0 10,0 10,0 0,0 0,10 0,10 10,0 10,0 10,0 0,0 0,0 0,0 0,0 0,0 10,0 0,0 0,0 0,0 0,0 0,0 0,0 0,0 0,0 0,0 0,0 0,0 0,0 0,0 0,0 0,0 0,0 0,0 0,-10 0,0 0,0 0,0"/><path id="path56" style="fill:#231f20;fill-opacity:1;fill-rule:nonzero;stroke:none" d="m 3040,5660 c 0,10 0,10 0,10 0,10 0,10 0,10 0,0 -10,10 -10,10 0,0 0,0 -10,0 0,0 0,0 -10,0 0,0 0,-10 0,-10 -10,0 -10,0 -10,-10 0,0 0,0 0,-10 0,0 0,0 0,-10 0,0 0,0 10,0 0,-10 0,-10 0,-10 0,0 10,0 10,0 10,0 10,0 10,0 0,0 10,0 10,0 0,10 0,10 0,10 0,10 0,10 0,10 m 10,0 c 0,0 0,-10 0,-10 0,-10 0,-10 0,-10 -10,-10 -10,-10 -10,-10 -10,0 -10,0 -20,0 0,0 -10,0 -10,0 -10,0 -10,0 -10,10 -10,0 -10,0 -10,10 0,0 0,10 0,10 0,10 0,10 0,20 0,0 0,10 10,10 0,0 0,10 10,10 0,0 10,0 10,0 10,0 10,0 20,0 0,0 0,-10 10,-10 0,0 0,-10 0,-10 0,-10 0,-10 0,-20"/><path id="path58" style="fill:#231f20;fill-opacity:1;fill-rule:nonzero;stroke:none" d="m 3140,5660 c 0,10 0,10 0,10 0,10 0,10 0,10 0,0 -10,10 -10,10 0,0 0,0 -10,0 0,0 0,0 0,0 0,0 0,0 -10,0 0,0 0,-10 0,-10 0,0 0,0 -10,0 v -30 c 10,0 10,-10 10,-10 10,0 10,0 10,0 10,0 10,0 10,0 0,0 0,0 10,10 0,0 0,0 0,0 0,10 0,10 0,10 m 10,0 c 0,0 0,-10 0,-10 0,-10 0,-10 0,-10 -10,-10 -10,-10 -10,-10 -10,0 -10,0 -20,0 0,0 0,0 0,0 0,0 0,0 -10,0 0,0 0,0 0,0 0,0 0,10 -10,10 v -40 c 0,0 0,0 0,0 0,0 0,0 0,0 0,0 0,0 0,0 0,0 0,0 0,0 0,0 0,0 0,0 -10,0 -10,0 -10,0 0,0 0,0 0,0 0,0 0,0 0,0 v 100 c 0,0 0,0 0,0 0,0 0,0 0,0 0,0 0,0 0,0 10,0 10,0 10,0 0,0 0,0 0,0 0,0 0,0 0,0 0,0 0,0 0,0 0,0 0,0 0,0 v -10 c 0,0 10,0 10,0 0,0 0,10 0,10 10,0 10,0 10,0 0,0 0,0 10,0 0,0 0,0 10,0 0,0 0,-10 10,-10 0,0 0,-10 0,-10 0,-10 0,-10 0,-20"/><path id="path60" style="fill:#231f20;fill-opacity:1;fill-rule:nonzero;stroke:none" d="m 3220,5730 c 0,0 0,0 0,0 0,0 0,0 0,0 10,0 10,0 10,0 0,0 0,0 0,0 0,0 0,0 0,0 0,0 0,0 10,0 0,0 0,0 0,0 0,0 0,0 -10,0 l -10,-20 c 0,0 0,0 0,0 0,0 0,0 0,0 0,0 0,0 0,0 0,0 0,0 0,0 -10,0 -10,0 -10,0 0,0 0,0 0,0 0,0 0,0 0,0 0,0 0,0 0,0 z m 10,-60 c 0,10 0,10 0,10 0,10 -10,10 -10,10 -10,0 -10,0 -10,0 0,0 -10,0 -10,-10 0,0 0,0 0,0 0,0 0,-10 0,-10 z m 20,0 c 0,-10 0,-10 0,-10 -10,0 -10,0 -10,0 h -40 c 0,0 0,-10 0,-10 0,0 0,0 0,-10 0,0 10,0 10,0 0,0 10,0 10,0 0,0 10,0 10,0 0,0 0,0 0,0 10,0 10,0 10,0 0,0 0,0 0,0 0,0 0,0 0,0 0,0 0,0 0,0 0,0 0,0 0,0 0,0 0,0 0,0 0,0 0,0 0,0 0,0 0,-10 0,-10 0,0 0,0 0,0 0,0 0,0 0,0 0,0 0,0 0,0 0,0 0,0 -10,0 0,0 0,0 0,0 -10,0 -10,0 -10,0 -10,0 -10,0 -20,0 0,0 0,0 -10,10 0,0 0,0 0,10 0,0 0,10 0,10 0,10 0,10 0,20 0,0 0,10 0,10 10,0 10,10 10,10 10,0 10,0 20,0 0,0 10,0 10,0 0,0 10,-10 10,-10 0,0 0,-10 0,-10 10,0 10,-10 10,-10 v 0"/><path id="path62" style="fill:#231f20;fill-opacity:1;fill-rule:nonzero;stroke:none" d="m 3330,5670 c 0,10 0,10 -10,10 0,10 0,10 -10,10 0,0 0,0 -10,0 0,0 0,0 0,-10 0,0 -10,0 -10,0 0,0 0,-10 0,-10 z m 10,0 c 0,-10 0,-10 0,-10 0,0 0,0 0,0 h -50 c 0,0 0,-10 0,-10 0,0 10,0 10,-10 0,0 0,0 0,0 10,0 10,0 10,0 10,0 10,0 10,0 0,0 10,0 10,0 0,0 0,0 0,0 0,0 10,0 10,0 0,0 0,0 0,0 0,0 0,0 0,0 0,0 0,0 0,0 0,0 0,0 0,0 0,0 0,0 0,0 0,0 0,-10 0,-10 0,0 0,0 0,0 0,0 0,0 0,0 0,0 0,0 -10,0 0,0 0,0 0,0 0,0 -10,0 -10,0 0,0 0,0 -10,0 0,0 -10,0 -10,0 -10,0 -10,0 -10,10 0,0 -10,0 -10,10 0,0 0,10 0,10 0,10 0,10 0,20 0,0 10,10 10,10 0,0 0,10 10,10 0,0 10,0 10,0 10,0 10,0 10,0 10,0 10,-10 10,-10 10,0 10,-10 10,-10 0,0 0,-10 0,-10 v 0"/><path id="path64" style="fill:#231f20;fill-opacity:1;fill-rule:nonzero;stroke:none" d="m 3440,5630 c 0,0 0,0 0,0 -10,0 -10,0 -10,0 0,0 0,0 0,0 0,0 0,0 0,0 0,0 0,0 0,0 0,0 -10,0 -10,0 0,0 0,0 0,0 0,0 0,0 0,0 v 40 c 0,0 0,10 0,10 0,0 0,0 0,0 0,10 0,10 0,10 -10,0 -10,0 -10,0 0,0 -10,0 -10,0 0,-10 -10,-10 -10,-10 v -50 c 0,0 0,0 0,0 0,0 0,0 0,0 0,0 0,0 0,0 0,0 0,0 -10,0 0,0 0,0 0,0 0,0 0,0 0,0 0,0 0,0 0,0 0,0 0,0 0,0 v 70 c 0,0 0,0 0,0 0,0 0,0 0,0 0,0 0,0 0,0 0,0 0,0 0,0 10,0 10,0 10,0 0,0 0,0 0,0 0,0 0,0 0,0 0,0 0,0 0,0 v -10 c 0,0 10,0 10,10 0,0 10,0 10,0 10,0 10,0 10,0 10,0 10,-10 10,-10 0,0 0,0 0,-10 0,0 10,0 10,-10 v -40"/><path id="path66" style="fill:#231f20;fill-opacity:1;fill-rule:nonzero;stroke:none" d="m 3600,5680 c 0,0 0,0 -10,10 0,0 0,0 -10,0 0,0 0,0 -10,0 0,0 0,-10 0,-10 0,0 0,0 0,-10 0,0 0,0 0,-10 0,0 0,0 0,-10 0,0 0,0 0,0 0,-10 0,-10 0,-10 10,0 10,0 10,0 0,0 10,0 10,0 0,0 0,0 0,0 0,0 0,0 10,0 0,10 0,10 0,10 z m 10,-50 c 0,0 0,0 0,0 0,0 0,0 0,0 0,0 0,0 0,0 0,0 0,0 0,0 0,0 0,0 0,0 0,0 -10,0 -10,0 0,0 0,0 0,0 0,0 0,0 0,0 v 10 c 0,0 0,-10 -10,-10 0,0 -10,0 -10,0 0,0 -10,0 -10,0 -10,0 -10,0 -10,10 0,0 0,0 -10,10 0,0 0,10 0,10 0,10 0,10 0,20 10,0 10,10 10,10 0,0 10,10 10,10 0,0 10,0 10,0 10,0 10,0 10,0 10,0 10,-10 10,-10 v 40 c 0,0 0,0 0,0 0,0 0,0 0,0 0,0 0,0 0,0 10,0 10,0 10,0 0,0 0,0 0,0 0,0 0,0 0,0 0,0 0,0 0,0 0,0 0,0 0,0 v -100"/><path id="path68" style="fill:#231f20;fill-opacity:1;fill-rule:nonzero;stroke:none" d="m 3700,5670 c 0,10 0,10 0,10 -10,10 -10,10 -20,10 0,0 0,0 -10,0 0,0 0,0 0,-10 0,0 0,0 0,0 -10,0 -10,-10 -10,-10 z m 10,0 c 0,-10 0,-10 0,-10 0,0 0,0 0,0 h -50 c 0,0 0,-10 0,-10 10,0 10,0 10,-10 0,0 0,0 10,0 0,0 0,0 10,0 0,0 0,0 0,0 10,0 10,0 10,0 0,0 0,0 0,0 10,0 10,0 10,0 0,0 0,0 0,0 0,0 0,0 0,0 0,0 0,0 0,0 0,0 0,0 0,0 0,0 0,0 0,0 0,0 0,-10 0,-10 0,0 0,0 0,0 0,0 0,0 0,0 0,0 0,0 0,0 -10,0 -10,0 -10,0 0,0 0,0 -10,0 0,0 0,0 -10,0 0,0 -10,0 -10,0 0,0 -10,0 -10,10 0,0 -10,0 -10,10 0,0 0,10 0,10 0,10 0,10 0,20 0,0 10,10 10,10 0,0 10,10 10,10 0,0 10,0 10,0 10,0 10,0 20,0 0,0 0,-10 10,-10 0,0 0,-10 0,-10 0,0 0,-10 0,-10 v 0"/><path id="path70" style="fill:#231f20;fill-opacity:1;fill-rule:nonzero;stroke:none" d="m 2250,5530 c 0,0 0,10 0,10 0,10 0,10 0,10 -10,10 -10,10 -10,10 -10,0 -10,0 -20,0 h -10 v -70 h 10 c 10,0 10,0 20,0 0,0 0,10 10,10 0,0 0,10 0,10 0,0 0,10 0,20 m 20,0 c 0,-10 0,-20 -10,-20 0,-10 0,-20 -10,-20 0,0 0,-10 -10,-10 -10,0 -10,0 -20,0 h -20 c 0,0 0,0 0,0 -10,0 -10,0 -10,0 v 90 c 0,0 0,0 10,0 0,0 0,0 0,0 h 20 c 10,0 20,0 20,0 10,0 10,0 20,-10 0,0 0,-10 0,-10 10,-10 10,-20 10,-20"/><path id="path72" style="fill:#231f20;fill-opacity:1;fill-rule:nonzero;stroke:none" d="m 2320,5580 c 0,0 0,0 0,0 0,0 0,0 0,0 0,0 0,0 0,0 0,0 0,0 0,0 10,0 10,0 10,0 0,0 0,0 0,0 0,0 0,0 0,0 0,0 0,0 0,0 l -10,-20 c 0,0 0,0 0,0 0,0 -10,0 -10,0 0,0 0,0 0,0 0,0 0,0 0,0 0,0 0,0 0,0 0,0 0,0 0,0 0,0 0,0 0,0 0,0 0,0 0,0 z m 10,-60 c 0,10 0,10 -10,10 0,10 0,10 -10,10 0,0 0,0 -10,0 0,0 0,0 0,-10 0,0 0,0 -10,0 0,0 0,-10 0,-10 z m 10,0 c 0,-10 0,-10 0,-10 0,0 0,0 0,0 h -50 c 0,0 0,-10 0,-10 10,0 10,0 10,-10 0,0 0,0 0,0 10,0 10,0 10,0 10,0 10,0 10,0 10,0 10,0 10,0 0,0 0,0 0,0 10,0 10,0 10,0 0,0 0,0 0,0 0,0 0,0 0,0 0,0 0,0 0,0 0,0 0,0 0,0 0,0 0,0 0,0 0,0 0,-10 0,-10 0,0 0,0 0,0 0,0 0,0 0,0 0,0 0,0 -10,0 0,0 0,0 0,0 0,0 0,0 -10,0 0,0 0,0 -10,0 0,0 -10,0 -10,0 0,0 -10,0 -10,10 0,0 -10,0 -10,10 0,0 0,10 0,10 0,10 0,10 0,20 0,0 10,10 10,10 0,0 10,10 10,10 0,0 10,0 10,0 10,0 10,0 20,0 0,0 0,-10 0,-10 10,0 10,-10 10,-10 0,0 0,-10 0,-10 v 0"/><path id="path74" style="fill:#231f20;fill-opacity:1;fill-rule:nonzero;stroke:none" d="m 2410,5550 c 0,0 0,0 0,0 0,0 0,0 0,0 0,-10 0,-10 0,-10 0,0 0,0 0,0 l -20,-60 c 0,0 0,0 0,0 0,0 0,0 0,0 0,0 0,0 0,0 -10,0 -10,0 -10,0 0,0 0,0 0,0 0,0 0,0 0,0 -10,0 -10,0 -10,0 0,0 0,0 0,0 l -20,60 c 0,0 0,0 0,10 0,0 0,0 0,0 0,0 0,0 0,0 0,0 0,0 0,0 0,0 0,0 0,0 0,0 0,0 0,0 0,0 10,0 10,0 0,0 0,0 0,0 0,0 0,0 0,0 0,0 0,0 0,0 0,0 0,0 0,0 l 20,-60 v 0 0 l 20,60 c 0,0 0,0 0,0 0,0 0,0 0,0 0,0 0,0 0,0 0,0 10,0 10,0 0,0 0,0 0,0 0,0 0,0 0,0 0,0 0,0 0,0 0,0 0,0 0,0"/><path id="path76" style="fill:#231f20;fill-opacity:1;fill-rule:nonzero;stroke:none" d="m 2470,5520 c 0,10 0,10 0,10 -10,10 -10,10 -20,10 0,0 0,0 -10,0 0,0 0,0 0,-10 0,0 0,0 -10,0 0,0 0,-10 0,-10 z m 10,0 c 0,-10 0,-10 0,-10 0,0 0,0 0,0 h -50 c 0,0 0,-10 0,-10 10,0 10,0 10,-10 0,0 0,0 0,0 10,0 10,0 10,0 10,0 10,0 10,0 10,0 10,0 10,0 0,0 0,0 0,0 10,0 10,0 10,0 0,0 0,0 0,0 0,0 0,0 0,0 0,0 0,0 0,0 0,0 0,0 0,0 0,0 0,0 0,0 0,0 0,-10 0,-10 0,0 0,0 0,0 0,0 0,0 0,0 0,0 0,0 0,0 -10,0 -10,0 -10,0 0,0 0,0 -10,0 0,0 0,0 -10,0 0,0 -10,0 -10,0 0,0 -10,0 -10,10 0,0 -10,0 -10,10 0,0 0,10 0,10 0,10 0,10 0,20 0,0 10,10 10,10 0,0 10,10 10,10 0,0 10,0 10,0 10,0 10,0 20,0 0,0 0,-10 0,-10 10,0 10,-10 10,-10 0,0 0,-10 0,-10 v 0"/><path id="path78" style="fill:#231f20;fill-opacity:1;fill-rule:nonzero;stroke:none" d="m 2510,5480 c 0,0 0,0 0,0 0,0 0,0 0,0 0,0 0,0 0,0 0,0 0,0 0,0 -10,0 -10,0 -10,0 0,0 0,0 0,0 0,0 0,0 0,0 0,0 0,0 0,0 v 100 c 0,0 0,0 0,0 0,0 0,0 0,0 0,0 0,0 0,0 0,0 0,0 10,0 0,0 0,0 0,0 0,0 0,0 0,0 0,0 0,0 0,0 0,0 0,0 0,0 v -100"/><path id="path80" style="fill:#231f20;fill-opacity:1;fill-rule:nonzero;stroke:none" d="m 2580,5510 c 0,10 0,10 0,10 0,10 0,10 0,10 0,0 0,10 -10,10 0,0 0,0 -10,0 0,0 0,0 -10,0 0,0 0,-10 0,-10 0,0 -10,0 -10,-10 0,0 0,0 0,-10 0,0 0,0 0,-10 0,0 0,0 10,0 0,-10 0,-10 0,-10 10,0 10,0 10,0 10,0 10,0 10,0 0,0 10,0 10,0 0,10 0,10 0,10 0,10 0,10 0,10 m 20,0 c 0,0 -10,-10 -10,-10 0,-10 0,-10 0,-10 -10,-10 -10,-10 -10,-10 -10,0 -10,0 -20,0 0,0 -10,0 -10,0 -10,0 -10,0 -10,10 -10,0 -10,0 -10,10 0,0 0,10 0,10 0,10 0,10 0,20 0,0 10,10 10,10 0,0 0,10 10,10 0,0 10,0 10,0 10,0 10,0 20,0 0,0 0,-10 10,-10 0,0 0,-10 0,-10 0,-10 10,-10 10,-20"/><path id="path82" style="fill:#231f20;fill-opacity:1;fill-rule:nonzero;stroke:none" d="m 2660,5510 c 0,10 0,10 0,10 0,10 0,10 0,10 0,0 0,10 -10,10 0,0 0,0 0,0 -10,0 -10,0 -10,0 0,0 0,0 0,0 -10,0 -10,-10 -10,-10 0,0 0,0 0,0 v -30 c 0,0 0,-10 0,-10 10,0 10,0 10,0 10,0 10,0 10,0 0,0 10,0 10,10 0,0 0,0 0,0 0,10 0,10 0,10 m 10,0 c 0,0 0,-10 0,-10 0,-10 0,-10 0,-10 -10,-10 -10,-10 -10,-10 -10,0 -10,0 -10,0 -10,0 -10,0 -10,0 0,0 0,0 0,0 -10,0 -10,0 -10,0 0,0 0,10 0,10 v -40 c 0,0 0,0 0,0 -10,0 -10,0 -10,0 0,0 0,0 0,0 0,0 0,0 0,0 0,0 0,0 0,0 0,0 0,0 -10,0 0,0 0,0 0,0 0,0 0,0 0,0 v 100 c 0,0 0,0 0,0 0,0 0,0 0,0 0,0 10,0 10,0 0,0 0,0 0,0 0,0 0,0 0,0 0,0 0,0 0,0 0,0 0,0 0,0 0,0 0,0 0,0 v -10 c 10,0 10,0 10,0 0,0 0,10 10,10 0,0 0,0 0,0 0,0 10,0 10,0 0,0 10,0 10,0 0,0 10,-10 10,-10 0,0 0,-10 0,-10 0,-10 0,-10 0,-20"/><path id="path84" style="fill:#231f20;fill-opacity:1;fill-rule:nonzero;stroke:none" d="m 2740,5510 c 0,10 0,10 0,10 0,10 0,10 0,10 0,0 -10,10 -10,10 0,0 0,0 -10,0 0,0 0,0 0,0 0,0 0,0 -10,0 0,0 0,-10 0,-10 0,0 0,0 -10,0 v -30 c 10,0 10,-10 10,-10 10,0 10,0 10,0 10,0 10,0 10,0 0,0 10,0 10,10 0,0 0,0 0,0 0,10 0,10 0,10 m 10,0 c 0,0 0,-10 0,-10 0,-10 0,-10 0,-10 -10,-10 -10,-10 -10,-10 -10,0 -10,0 -20,0 0,0 0,0 0,0 0,0 0,0 -10,0 0,0 0,0 0,0 0,0 0,10 -10,10 v -40 c 0,0 0,0 0,0 0,0 0,0 0,0 0,0 0,0 0,0 0,0 0,0 0,0 0,0 0,0 0,0 -10,0 -10,0 -10,0 0,0 0,0 0,0 0,0 0,0 0,0 v 100 c 0,0 0,0 0,0 0,0 0,0 0,0 0,0 0,0 0,0 10,0 10,0 10,0 0,0 0,0 0,0 0,0 0,0 0,0 0,0 0,0 0,0 0,0 0,0 0,0 v -10 c 0,0 10,0 10,0 0,0 0,10 0,10 10,0 10,0 10,0 0,0 0,0 10,0 0,0 10,0 10,0 0,0 0,-10 10,-10 0,0 0,-10 0,-10 0,-10 0,-10 0,-20"/><path id="path86" style="fill:#231f20;fill-opacity:1;fill-rule:nonzero;stroke:none" d="m 2820,5520 c 0,10 -10,10 -10,10 0,10 -10,10 -10,10 -10,0 -10,0 -10,0 0,0 0,0 -10,-10 0,0 0,0 0,0 0,0 0,-10 0,-10 z m 10,0 c 0,-10 0,-10 0,-10 -10,0 -10,0 -10,0 h -40 c 0,0 0,-10 0,-10 0,0 0,0 0,-10 10,0 10,0 10,0 0,0 10,0 10,0 0,0 10,0 10,0 0,0 0,0 10,0 0,0 0,0 0,0 0,0 0,0 0,0 0,0 0,0 0,0 0,0 0,0 0,0 0,0 0,0 0,0 0,0 0,0 0,0 0,0 0,0 0,0 0,0 0,-10 0,-10 0,0 0,0 0,0 0,0 0,0 0,0 0,0 0,0 0,0 0,0 0,0 0,0 -10,0 -10,0 -10,0 0,0 -10,0 -10,0 -10,0 -10,0 -10,0 -10,0 -10,0 -10,10 -10,0 -10,0 -10,10 0,0 0,10 0,10 0,10 0,10 0,20 0,0 0,10 10,10 0,0 0,10 10,10 0,0 0,0 10,0 0,0 10,0 10,0 10,0 10,-10 10,-10 0,0 0,-10 10,-10 0,0 0,-10 0,-10 v 0"/><path id="path88" style="fill:#231f20;fill-opacity:1;fill-rule:nonzero;stroke:none" d="m 2940,5480 c 0,0 0,0 0,0 0,0 0,0 0,0 0,0 0,0 0,0 0,0 0,0 0,0 0,0 0,0 -10,0 0,0 0,0 0,0 0,0 0,0 0,0 0,0 0,0 0,0 v 40 c 0,0 0,10 0,10 0,0 0,0 0,0 0,10 0,10 -10,10 0,0 0,0 0,0 0,0 -10,0 -10,0 0,-10 -10,-10 -10,-10 v -50 c 0,0 0,0 0,0 0,0 0,0 0,0 0,0 0,0 0,0 0,0 0,0 -10,0 0,0 0,0 0,0 0,0 0,0 0,0 0,0 0,0 0,0 0,0 0,0 0,0 v 40 c 0,0 0,10 0,10 0,0 0,0 0,0 -10,10 -10,10 -10,10 0,0 0,0 0,0 -10,0 -10,0 -10,0 -10,-10 -10,-10 -10,-10 v -50 c 0,0 0,0 0,0 0,0 0,0 0,0 0,0 0,0 -10,0 0,0 0,0 0,0 0,0 0,0 0,0 0,0 0,0 0,0 0,0 0,0 0,0 0,0 0,0 0,0 v 70 c 0,0 0,0 0,0 0,0 0,0 0,0 0,0 0,0 0,0 0,0 0,0 0,0 0,0 0,0 0,0 0,0 10,0 10,0 0,0 0,0 0,0 0,0 0,0 0,0 v -10 c 0,0 0,0 10,10 0,0 0,0 10,0 0,0 0,0 10,0 0,0 0,0 0,0 0,-10 0,-10 10,-10 0,0 0,0 0,0 0,0 0,0 0,0 10,0 10,10 10,10 0,0 0,0 10,0 0,0 0,0 0,0 10,0 10,0 10,0 0,0 10,-10 10,-10 0,0 0,0 0,-10 0,0 0,0 0,-10 v -40"/><path id="path90" style="fill:#231f20;fill-opacity:1;fill-rule:nonzero;stroke:none" d="m 3010,5520 c 0,10 0,10 0,10 -10,10 -10,10 -20,10 0,0 0,0 -10,0 0,0 0,0 0,-10 0,0 0,0 -10,0 0,0 0,-10 0,-10 z m 10,0 c 0,-10 0,-10 0,-10 0,0 0,0 0,0 h -50 c 0,0 0,-10 0,-10 10,0 10,0 10,-10 0,0 0,0 10,0 0,0 0,0 10,0 0,0 0,0 0,0 10,0 10,0 10,0 0,0 0,0 0,0 10,0 10,0 10,0 0,0 0,0 0,0 0,0 0,0 0,0 0,0 0,0 0,0 0,0 0,0 0,0 0,0 0,0 0,0 0,0 0,-10 0,-10 0,0 0,0 0,0 0,0 0,0 0,0 0,0 0,0 0,0 -10,0 -10,0 -10,0 0,0 0,0 -10,0 0,0 0,0 -10,0 0,0 -10,0 -10,0 0,0 -10,0 -10,10 0,0 -10,0 -10,10 0,0 0,10 0,10 0,10 0,10 0,20 0,0 10,10 10,10 0,0 10,10 10,10 0,0 10,0 10,0 10,0 10,0 20,0 0,0 0,-10 0,-10 10,0 10,-10 10,-10 0,0 0,-10 0,-10 v 0"/><path id="path92" style="fill:#231f20;fill-opacity:1;fill-rule:nonzero;stroke:none" d="m 3100,5480 c 0,0 0,0 0,0 0,0 0,0 0,0 0,0 -10,0 -10,0 0,0 0,0 0,0 0,0 0,0 0,0 0,0 0,0 0,0 0,0 0,0 0,0 -10,0 -10,0 -10,0 v 40 c 0,0 0,10 0,10 0,0 0,0 0,0 0,10 0,10 0,10 0,0 -10,0 -10,0 0,0 -10,0 -10,0 0,-10 0,-10 -10,-10 v -50 c 0,0 0,0 0,0 0,0 0,0 0,0 0,0 0,0 0,0 0,0 0,0 0,0 -10,0 -10,0 -10,0 0,0 0,0 0,0 0,0 0,0 0,0 0,0 0,0 0,0 v 70 c 0,0 0,0 0,0 0,0 0,0 0,0 0,0 0,0 0,0 0,0 0,0 10,0 0,0 0,0 0,0 0,0 0,0 0,0 0,0 0,0 0,0 0,0 0,0 0,0 v -10 c 0,0 10,0 10,10 10,0 10,0 10,0 10,0 10,0 10,0 10,0 10,-10 10,-10 0,0 0,0 10,-10 0,0 0,0 0,-10 v -40"/><path id="path94" style="fill:#231f20;fill-opacity:1;fill-rule:nonzero;stroke:none" d="m 3150,5490 c 0,-10 0,-10 0,-10 0,0 0,0 0,0 0,0 0,0 0,0 0,0 0,0 0,0 0,0 -10,0 -10,0 0,0 0,0 0,0 0,0 -10,0 -10,0 0,0 0,0 -10,0 0,0 0,10 0,10 0,0 0,10 0,10 v 40 h -10 c 0,0 0,0 0,0 0,0 0,0 0,0 0,0 0,0 0,10 0,0 0,0 0,0 0,0 0,0 0,0 0,0 0,0 0,0 h 10 v 10 c 0,0 0,0 0,0 0,10 0,10 0,10 0,0 0,0 0,0 0,0 10,0 10,0 0,0 0,0 0,0 0,0 0,0 0,0 0,0 0,0 0,-10 0,0 0,0 0,0 v -10 h 20 c 0,0 0,0 0,0 0,0 0,0 0,0 0,0 0,0 0,0 0,-10 0,-10 0,-10 0,0 0,0 0,0 0,0 0,0 0,0 h -20 v -40 c 0,0 0,-10 0,-10 10,0 10,0 10,0 0,0 0,0 0,0 10,0 10,0 10,0 0,0 0,0 0,0 0,0 0,0 0,0 0,0 0,0 0,0 0,0 0,0 0,0 0,0 0,0 0,0 0,0 0,0 0,0"/><path id="path96" style="fill:#231f20;fill-opacity:1;fill-rule:nonzero;stroke:none" d="m 3250,5550 c 0,0 0,0 0,10 0,0 0,0 -10,0 0,0 0,0 0,0 0,0 -10,0 -10,0 h -10 v -30 h 10 c 10,0 10,0 10,0 0,0 10,0 10,10 0,0 0,0 0,0 0,0 0,0 0,10 m 20,-70 c 0,0 0,0 0,0 0,0 0,0 0,0 0,0 0,0 0,0 0,0 0,0 0,0 -10,0 -10,0 -10,0 0,0 0,0 0,0 0,0 0,0 0,0 0,0 0,0 0,0 l -10,20 c 0,10 0,10 0,10 0,0 -10,0 -10,10 0,0 0,0 0,0 0,0 -10,0 -10,0 h -10 v -40 c 0,0 0,0 0,0 0,0 0,0 0,0 0,0 0,0 0,0 0,0 0,0 0,0 -10,0 -10,0 -10,0 0,0 0,0 0,0 0,0 0,0 0,0 0,0 0,0 0,0 v 90 c 0,0 0,0 0,0 0,0 0,0 0,0 h 20 c 10,0 10,0 10,0 0,0 0,0 0,0 10,0 10,0 10,0 10,0 10,0 10,-10 0,0 0,0 10,0 0,-10 0,-10 0,-10 0,0 0,-10 0,-10 -10,0 -10,0 -10,-10 0,0 0,0 0,0 -10,0 -10,0 -10,-10 0,0 0,0 0,0 0,0 0,0 10,0 0,0 0,0 0,-10 0,0 0,0 0,0 l 10,-20 c 0,-10 0,-10 0,-10 0,0 0,0 0,0"/><path id="path98" style="fill:#231f20;fill-opacity:1;fill-rule:nonzero;stroke:none" d="m 3320,5580 c 0,0 0,0 0,0 0,0 0,0 0,0 0,0 0,0 0,0 0,0 10,0 10,0 0,0 0,0 0,0 0,0 0,0 0,0 0,0 0,0 0,0 0,0 0,0 0,0 l -10,-20 c 0,0 0,0 0,0 0,0 0,0 0,0 0,0 -10,0 -10,0 0,0 0,0 0,0 0,0 0,0 0,0 0,0 0,0 0,0 0,0 0,0 0,0 0,0 0,0 0,0 z m 10,-60 c 0,10 0,10 0,10 -10,10 -10,10 -20,10 0,0 0,0 0,0 -10,0 -10,0 -10,-10 0,0 0,0 0,0 0,0 -10,-10 -10,-10 z m 10,0 c 0,-10 0,-10 0,-10 0,0 0,0 0,0 h -50 c 0,0 0,-10 10,-10 0,0 0,0 0,-10 0,0 0,0 10,0 0,0 0,0 10,0 0,0 0,0 0,0 10,0 10,0 10,0 0,0 0,0 10,0 0,0 0,0 0,0 0,0 0,0 0,0 0,0 0,0 0,0 0,0 0,0 0,0 0,0 0,0 0,0 0,0 0,0 0,0 0,0 0,-10 0,-10 0,0 0,0 0,0 0,0 0,0 0,0 0,0 0,0 0,0 -10,0 -10,0 -10,0 0,0 0,0 -10,0 0,0 0,0 -10,0 0,0 -10,0 -10,0 0,0 -10,0 -10,10 0,0 0,0 -10,10 0,0 0,10 0,10 0,10 0,10 0,20 10,0 10,10 10,10 0,0 10,10 10,10 0,0 10,0 10,0 10,0 10,0 20,0 0,0 0,-10 10,-10 0,0 0,-10 0,-10 0,0 0,-10 0,-10 v 0"/><path id="path100" style="fill:#231f20;fill-opacity:1;fill-rule:nonzero;stroke:none" d="m 3400,5530 c 0,0 0,0 -10,10 0,0 0,0 -10,0 0,0 0,0 0,0 0,0 -10,0 -10,0 0,-10 0,-10 0,-10 0,0 0,0 0,0 0,-10 0,-10 0,-10 10,-10 10,-10 10,-10 10,0 10,0 10,0 0,0 0,0 0,10 0,0 10,0 10,0 0,0 0,0 0,10 m 0,-60 c 0,10 0,10 0,10 0,0 -10,0 -10,0 h -20 c 0,0 0,0 0,0 0,0 0,0 0,0 0,0 0,-10 0,-10 0,0 0,0 0,0 0,0 0,0 0,-10 0,0 10,0 10,0 10,0 10,0 10,0 10,0 10,0 10,10 0,0 0,0 0,0 0,0 0,0 0,0 m 20,70 c 0,0 0,0 0,0 -10,0 -10,0 -10,0 h -10 c 10,0 10,-10 10,-10 0,0 0,0 0,0 0,-10 0,-10 0,-10 0,-10 -10,-10 -10,-10 0,0 0,-10 -10,-10 0,0 0,0 -10,0 0,0 0,0 0,0 -10,0 -10,0 -10,10 0,0 0,-10 0,-10 0,0 0,0 0,0 0,0 0,0 0,-10 0,0 0,0 10,0 h 10 c 10,0 10,0 10,0 0,0 10,0 10,0 0,0 0,-10 0,-10 0,0 10,0 10,-10 0,0 -10,0 -10,0 0,-10 0,-10 0,-10 0,0 -10,-10 -10,-10 -10,0 -10,0 -20,0 0,0 -10,0 -10,0 0,0 -10,10 -10,10 0,0 0,0 0,0 -10,0 -10,10 -10,10 0,0 0,0 0,0 0,10 10,10 10,10 0,0 0,0 0,0 0,0 0,10 0,10 0,0 0,0 0,0 0,0 0,0 0,10 0,0 0,0 0,0 0,10 0,10 0,10 0,0 0,10 0,10 0,0 0,0 0,10 0,0 0,0 0,10 0,0 0,0 0,0 10,10 10,10 10,10 10,0 10,0 10,0 10,0 10,0 10,0 0,0 0,0 0,0 h 20 c 0,0 10,0 10,0 0,0 0,0 0,-10"/><path id="path102" style="fill:#231f20;fill-opacity:1;fill-rule:nonzero;stroke:none" d="m 3440,5480 c 0,0 0,0 0,0 0,0 0,0 0,0 0,0 0,0 0,0 0,0 0,0 0,0 0,0 0,0 -10,0 0,0 0,0 0,0 0,0 0,0 0,0 0,0 0,0 0,0 v 70 c 0,0 0,0 0,0 0,0 0,0 0,0 0,0 0,0 0,0 10,0 10,0 10,0 0,0 0,0 0,0 0,0 0,0 0,0 0,0 0,0 0,0 0,0 0,0 0,0 z m 10,90 c 0,0 -10,-10 -10,-10 0,0 0,0 0,0 -10,0 -10,0 -10,0 0,0 0,10 0,10 0,0 0,0 0,0 0,10 0,10 10,10 0,0 0,0 0,-10 0,0 10,0 10,0"/><path id="path104" style="fill:#231f20;fill-opacity:1;fill-rule:nonzero;stroke:none" d="m 3510,5510 c 0,10 0,10 0,10 0,10 0,10 0,10 0,0 0,10 -10,10 0,0 0,0 -10,0 0,0 0,0 0,0 -10,0 -10,-10 -10,-10 0,0 0,0 0,-10 -10,0 -10,0 -10,-10 0,0 0,0 0,-10 10,0 10,0 10,0 0,-10 0,-10 0,-10 10,0 10,0 10,0 10,0 10,0 10,0 10,0 10,0 10,0 0,10 0,10 0,10 0,10 0,10 0,10 m 20,0 c 0,0 0,-10 0,-10 -10,-10 -10,-10 -10,-10 0,-10 -10,-10 -10,-10 -10,0 -10,0 -20,0 0,0 -10,0 -10,0 0,0 -10,0 -10,10 0,0 -10,0 -10,10 0,0 0,10 0,10 0,10 0,10 0,20 0,0 10,10 10,10 0,0 10,10 10,10 0,0 10,0 20,0 0,0 10,0 10,0 0,0 10,-10 10,-10 0,0 0,-10 10,-10 0,-10 0,-10 0,-20"/><path id="path106" style="fill:#231f20;fill-opacity:1;fill-rule:nonzero;stroke:none" d="m 3600,5480 c 0,0 0,0 0,0 0,0 0,0 0,0 0,0 0,0 0,0 0,0 0,0 0,0 -10,0 -10,0 -10,0 0,0 0,0 0,0 0,0 0,0 0,0 0,0 0,0 0,0 v 40 c 0,0 0,10 0,10 0,0 0,0 0,0 0,10 -10,10 -10,10 0,0 0,0 0,0 -10,0 -10,0 -10,0 -10,-10 -10,-10 -10,-10 v -50 c 0,0 0,0 0,0 0,0 0,0 0,0 0,0 -10,0 -10,0 0,0 0,0 0,0 0,0 0,0 0,0 0,0 0,0 0,0 0,0 0,0 0,0 0,0 0,0 0,0 v 70 c 0,0 0,0 0,0 0,0 0,0 0,0 0,0 0,0 0,0 0,0 0,0 0,0 0,0 0,0 0,0 0,0 0,0 0,0 10,0 10,0 10,0 0,0 0,0 0,0 v -10 c 0,0 0,0 10,10 0,0 0,0 10,0 0,0 10,0 10,0 0,0 0,-10 10,-10 0,0 0,0 0,-10 0,0 0,0 0,-10 v -40"/><path id="path108" style="fill:#231f20;fill-opacity:1;fill-rule:nonzero;stroke:none" d="m 3660,5510 h -10 c 0,0 0,0 -10,0 0,0 0,0 0,0 -10,0 -10,-10 -10,-10 0,0 0,0 0,0 0,-10 0,-10 10,-10 0,0 0,0 0,0 10,0 10,0 10,0 10,0 10,0 10,10 z m 10,-30 c 0,0 0,0 0,0 0,0 0,0 0,0 0,0 0,0 0,0 0,0 0,0 0,0 -10,0 -10,0 -10,0 0,0 0,0 0,0 v 10 c 0,-10 0,-10 -10,-10 0,0 0,0 -10,0 0,0 0,0 -10,0 0,0 0,0 0,0 -10,0 -10,10 -10,10 0,0 0,0 0,10 0,0 0,0 0,10 0,0 10,0 10,0 0,10 0,10 10,10 0,0 10,0 10,0 h 10 v 0 c 0,10 0,10 0,10 0,0 0,0 0,10 0,0 0,0 -10,0 0,0 0,0 0,0 -10,0 -10,0 -10,0 0,0 -10,0 -10,0 0,0 0,-10 0,-10 0,0 0,0 0,0 -10,0 -10,0 -10,0 0,0 0,0 0,0 0,0 0,10 0,10 0,0 0,0 0,0 0,0 0,0 0,0 0,0 0,0 0,0 0,0 10,0 10,0 0,10 0,10 0,10 10,0 10,0 10,0 0,0 10,0 10,0 0,0 10,0 10,0 0,0 10,0 10,-10 0,0 0,0 0,0 0,-10 0,-10 0,-20 v -40"/><path id="path110" style="fill:#231f20;fill-opacity:1;fill-rule:nonzero;stroke:none" d="m 3710,5480 c 0,0 0,0 0,0 0,0 0,0 0,0 0,0 0,0 -10,0 0,0 0,0 0,0 0,0 0,0 0,0 0,0 0,0 0,0 0,0 0,0 0,0 0,0 0,0 0,0 v 100 c 0,0 0,0 0,0 0,0 0,0 0,0 0,0 0,0 0,0 0,0 0,0 0,0 0,0 0,0 0,0 10,0 10,0 10,0 0,0 0,0 0,0 0,0 0,0 0,0 v -100"/><path id="path112" style="fill:#231f20;fill-opacity:1;fill-rule:nonzero;stroke:none" d="m 2280,5840 c 0,0 0,-10 -10,-10 0,-10 0,-10 -10,-20 0,0 0,0 -10,-10 -10,0 -10,0 -20,0 -10,0 -10,0 -20,0 0,10 -10,10 -10,10 -10,10 -10,10 -10,20 0,0 0,10 0,10 v 70 c 0,0 0,0 0,0 0,0 0,0 0,0 0,0 0,0 0,0 0,0 0,0 10,0 0,0 0,0 0,0 0,0 0,0 10,0 0,0 0,0 0,0 0,0 0,0 0,0 v -60 c 0,-10 0,-10 0,-20 0,0 0,0 0,0 10,-10 10,-10 10,-10 0,0 10,0 10,0 0,0 10,0 10,0 0,0 10,0 10,10 0,0 0,0 0,0 0,10 0,10 0,10 v 70 c 0,0 0,0 0,0 0,0 10,0 10,0 0,0 0,0 0,0 0,0 0,0 0,0 10,0 10,0 10,0 0,0 0,0 0,0 0,0 10,0 10,0 0,0 0,0 0,0 v -70"/><path id="path114" style="fill:#231f20;fill-opacity:1;fill-rule:nonzero;stroke:none" d="m 2390,5810 c 0,0 0,0 0,0 0,0 0,0 0,0 0,-10 0,-10 0,-10 0,0 -10,0 -10,0 h -10 c 0,0 0,0 0,0 0,0 0,10 -10,10 0,0 0,0 0,0 0,0 0,0 0,10 l -30,50 c 0,0 0,10 -10,10 0,0 0,10 0,10 v 0 c 0,0 0,-10 0,-10 0,-10 0,-10 0,-20 v -50 c 0,0 0,0 0,0 0,-10 0,-10 0,-10 0,0 0,0 0,0 -10,0 -10,0 -10,0 0,0 0,0 0,0 -10,0 -10,0 -10,0 0,0 0,0 0,10 0,0 0,0 0,0 v 100 c 0,0 0,0 0,0 0,0 10,0 10,0 h 10 c 0,0 0,0 10,0 0,0 0,0 0,0 0,0 0,0 0,0 0,0 10,0 10,-10 l 20,-40 c 0,0 0,0 0,0 0,-10 0,-10 10,-10 0,0 0,-10 0,-10 0,0 0,0 0,-10 v 0 c 0,10 0,10 0,20 0,0 0,10 0,10 v 50 c 0,0 0,0 0,0 0,0 0,0 0,0 0,0 10,0 10,0 0,0 0,0 0,0 0,0 10,0 10,0 0,0 0,0 0,0 0,0 0,0 0,0 0,0 0,0 0,0 v -100"/><path id="path116" style="fill:#231f20;fill-opacity:1;fill-rule:nonzero;stroke:none" d="m 2440,5810 c 0,0 0,0 0,0 0,-10 0,-10 0,-10 0,0 -10,0 -10,0 0,0 0,0 0,0 -10,0 -10,0 -10,0 0,0 0,0 0,0 0,0 0,0 0,10 0,0 0,0 0,0 v 100 c 0,0 0,0 0,0 0,0 0,0 0,0 0,0 0,0 0,0 0,0 0,0 10,0 0,0 0,0 0,0 0,0 10,0 10,0 0,0 0,0 0,0 0,0 0,0 0,0 v -100"/><path id="path118" style="fill:#231f20;fill-opacity:1;fill-rule:nonzero;stroke:none" d="m 2540,5860 c 0,0 0,10 0,10 0,10 -10,10 -10,20 0,0 0,0 -10,10 0,0 0,0 -10,0 -10,0 -10,0 -10,-10 -10,0 -10,0 -10,0 -10,-10 -10,-10 -10,-20 0,0 0,-10 0,-10 0,-10 0,-10 0,-20 0,0 0,-10 10,-10 0,0 0,-10 10,-10 0,0 0,0 10,0 10,0 10,0 10,0 10,10 10,10 10,10 0,10 10,10 10,10 0,10 0,10 0,20 m 20,0 c 0,-10 0,-20 0,-20 0,-10 -10,-20 -10,-20 -10,-10 -10,-10 -20,-10 0,-10 -10,-10 -20,-10 -10,0 -20,0 -20,0 -10,10 -20,10 -20,20 0,0 -10,10 -10,10 0,10 0,20 0,30 0,10 0,20 0,20 0,10 10,20 10,20 10,10 10,10 20,10 0,10 10,10 20,10 10,0 20,0 20,-10 10,0 10,0 20,-10 0,0 10,-10 10,-10 0,-10 0,-20 0,-30"/><path id="path120" style="fill:#231f20;fill-opacity:1;fill-rule:nonzero;stroke:none" d="m 2670,5810 c 0,0 0,0 0,0 0,0 0,0 0,0 0,-10 0,-10 0,-10 0,0 0,0 -10,0 h -10 c 0,0 0,0 0,0 0,0 0,10 0,10 -10,0 -10,0 -10,0 0,0 0,0 0,10 l -30,50 c 0,0 0,10 0,10 -10,0 -10,10 -10,10 v 0 c 0,0 0,-10 0,-10 0,-10 0,-10 0,-20 v -50 c 0,0 0,0 0,0 0,-10 0,-10 0,-10 0,0 0,0 0,0 0,0 -10,0 -10,0 0,0 0,0 0,0 0,0 -10,0 -10,0 0,0 0,0 0,10 0,0 0,0 0,0 v 100 c 0,0 0,0 0,0 10,0 10,0 10,0 h 10 c 0,0 10,0 10,0 0,0 0,0 0,0 0,0 0,0 0,0 10,0 10,0 10,-10 l 20,-40 c 0,0 0,0 0,0 0,-10 10,-10 10,-10 0,0 0,-10 0,-10 0,0 0,0 0,-10 v 0 c 0,10 0,10 0,20 0,0 0,10 0,10 v 50 c 0,0 0,0 0,0 0,0 0,0 0,0 10,0 10,0 10,0 0,0 0,0 0,0 0,0 10,0 10,0 0,0 0,0 0,0 0,0 0,0 0,0 0,0 0,0 0,0 v -100"/><path id="path122" style="fill:#231f20;fill-opacity:1;fill-rule:nonzero;stroke:none" d="m 2800,5810 c 0,0 0,0 0,0 0,0 0,0 0,0 0,-10 0,-10 0,-10 0,0 0,0 0,0 h -60 c 0,0 0,0 0,10 0,0 0,0 0,0 v 100 c 0,0 0,0 0,0 0,0 0,0 0,0 h 60 c 0,0 0,0 0,0 0,0 0,0 0,0 0,0 0,0 0,0 0,0 0,0 0,0 0,-10 0,-10 0,-10 0,0 0,0 0,0 0,0 0,0 0,0 0,0 0,0 0,0 h -40 v -30 h 30 c 0,0 0,0 0,0 0,0 0,0 10,0 0,0 0,0 0,0 0,-10 0,-10 0,-10 0,0 0,0 0,0 0,0 0,-10 0,-10 -10,0 -10,0 -10,0 0,0 0,0 0,0 h -30 v -30 h 40 c 0,0 0,0 0,0 0,0 0,0 0,0 0,0 0,0 0,0 0,0 0,-10 0,-10"/><path id="path124" style="fill:#231f20;fill-opacity:1;fill-rule:nonzero;stroke:none" d="m 2910,5840 c 0,0 0,-10 0,-10 0,-10 -10,-10 -10,-20 0,0 -10,0 -10,-10 -10,0 -20,0 -20,0 -10,0 -20,0 -20,0 -10,10 -10,10 -20,10 0,10 0,10 0,20 -10,0 -10,10 -10,10 v 70 c 0,0 0,0 0,0 0,0 0,0 0,0 10,0 10,0 10,0 0,0 0,0 0,0 10,0 10,0 10,0 0,0 0,0 0,0 0,0 0,0 0,0 0,0 0,0 0,0 v -60 c 0,-10 10,-10 10,-20 0,0 0,0 0,0 0,-10 10,-10 10,-10 0,0 0,0 10,0 0,0 0,0 10,0 0,0 0,0 0,10 10,0 10,0 10,0 0,10 0,10 0,10 v 70 c 0,0 0,0 0,0 0,0 0,0 0,0 0,0 0,0 10,0 0,0 0,0 0,0 0,0 10,0 10,0 0,0 0,0 0,0 0,0 0,0 0,0 0,0 0,0 0,0 v -70"/><path id="path126" style="fill:#231f20;fill-opacity:1;fill-rule:nonzero;stroke:none" d="m 2990,5880 c 0,10 0,10 0,10 0,0 -10,10 -10,10 0,0 0,0 0,0 -10,0 -10,0 -10,0 h -10 v -30 h 10 c 0,0 10,0 10,0 0,0 0,0 10,0 0,0 0,0 0,10 0,0 0,0 0,0 m 30,-70 c 0,0 0,0 0,-10 0,0 0,0 0,0 0,0 0,0 -10,0 0,0 0,0 0,0 -10,0 -10,0 -10,0 0,0 0,0 0,0 0,0 0,0 0,0 0,10 0,10 -10,10 l -10,20 c 0,0 0,10 0,10 0,0 0,0 0,0 0,10 -10,10 -10,10 0,0 0,0 0,0 h -10 v -40 c 0,0 0,0 0,0 0,-10 0,-10 0,-10 0,0 -10,0 -10,0 0,0 0,0 0,0 0,0 -10,0 -10,0 0,0 0,0 0,0 0,0 0,0 0,10 0,0 0,0 0,0 v 100 c 0,0 0,0 0,0 0,0 0,0 0,0 h 30 c 10,0 10,0 10,0 0,0 0,0 0,0 10,0 10,0 20,0 0,0 0,0 10,-10 0,0 0,0 0,0 0,-10 0,-10 0,-20 0,0 0,0 0,-10 0,0 0,0 0,0 0,-10 -10,-10 -10,-10 0,0 0,0 -10,0 0,-10 10,-10 10,-10 0,0 0,0 0,0 0,0 0,-10 0,-10 10,0 10,0 10,0 l 10,-30 c 0,0 0,0 0,0 0,0 0,0 0,0"/><path id="path128" style="fill:#231f20;fill-opacity:1;fill-rule:nonzero;stroke:none" d="m 3110,5860 c 0,0 0,10 0,10 0,10 0,10 -10,20 0,0 0,0 0,10 -10,0 -10,0 -20,0 0,0 -10,0 -10,-10 -10,0 -10,0 -10,0 0,-10 -10,-10 -10,-20 0,0 0,-10 0,-10 0,-10 0,-10 0,-20 0,0 10,-10 10,-10 0,0 0,-10 10,-10 0,0 10,0 10,0 10,0 10,0 10,0 10,10 10,10 10,10 10,10 10,10 10,10 0,10 0,10 0,20 m 20,0 c 0,-10 0,-20 0,-20 0,-10 -10,-20 -10,-20 0,-10 -10,-10 -20,-10 0,-10 -10,-10 -20,-10 -10,0 -20,0 -20,0 -10,10 -10,10 -20,20 0,0 -10,10 -10,10 0,10 0,20 0,30 0,10 0,20 0,20 0,10 10,20 10,20 10,10 10,10 20,10 10,10 10,10 20,10 10,0 20,0 20,-10 10,0 20,0 20,-10 0,0 10,-10 10,-10 0,-10 0,-20 0,-30"/><path id="path130" style="fill:#231f20;fill-opacity:1;fill-rule:nonzero;stroke:none" d="m 3210,5880 c 0,0 -10,10 -10,10 0,0 0,0 0,0 0,10 -10,10 -10,10 0,0 0,0 -10,0 v 0 -40 h 10 c 0,0 0,0 0,0 10,0 10,0 10,0 0,10 0,10 0,10 0,0 10,10 10,10 m 20,0 c 0,-10 0,-10 0,-20 -10,0 -10,0 -10,-10 -10,0 -10,0 -20,-10 0,0 -10,0 -20,0 v 0 -30 c 0,0 0,0 -10,0 0,-10 0,-10 0,-10 0,0 0,0 0,0 0,0 0,0 -10,0 0,0 0,0 0,0 0,0 0,0 -10,0 0,0 0,0 0,10 0,0 0,0 0,0 v 100 c 0,0 0,0 0,0 10,0 10,0 10,0 h 30 c 0,0 0,0 0,0 10,0 10,0 10,0 10,0 10,0 10,0 10,0 10,0 10,-10 0,0 10,0 10,-10 0,0 0,0 0,-10"/><path id="path132" style="fill:#231f20;fill-opacity:1;fill-rule:nonzero;stroke:none" d="m 3290,5940 c 0,10 0,10 0,10 0,0 0,0 0,0 0,0 0,0 0,0 10,0 10,0 10,0 0,0 0,0 10,0 0,0 0,0 0,0 0,0 0,0 0,-10 0,0 0,0 0,0 l -20,-10 c 0,-10 0,-10 0,-10 0,0 -10,0 -10,0 0,0 0,0 0,0 0,0 0,0 0,0 -10,0 -10,0 -10,0 0,0 0,0 0,0 0,0 0,0 0,0 0,10 0,10 0,10 z m 20,-130 c 0,0 0,0 0,0 0,0 0,0 0,0 0,-10 0,-10 0,-10 0,0 0,0 0,0 h -60 c 0,0 0,0 0,10 0,0 0,0 0,0 v 100 c 0,0 0,0 0,0 0,0 0,0 0,0 h 60 c 0,0 0,0 0,0 0,0 0,0 0,0 0,0 0,0 0,0 0,0 0,0 0,0 0,-10 0,-10 0,-10 0,0 0,0 0,0 0,0 0,0 0,0 0,0 0,0 0,0 h -40 v -30 h 30 c 0,0 0,0 0,0 0,0 0,0 0,0 0,0 10,0 10,0 0,-10 0,-10 0,-10 0,0 0,0 0,0 0,0 -10,-10 -10,-10 0,0 0,0 0,0 0,0 0,0 0,0 h -30 v -30 h 40 c 0,0 0,0 0,0 0,0 0,0 0,0 0,0 0,0 0,0 0,0 0,-10 0,-10"/><path id="path134" style="fill:#231f20;fill-opacity:1;fill-rule:nonzero;stroke:none" d="m 3400,5810 c 0,0 0,0 0,0 0,0 0,0 0,0 0,-10 0,-10 0,-10 0,0 -10,0 -10,0 h -50 c 0,0 -10,0 -10,10 0,0 0,0 0,0 v 100 c 0,0 0,0 0,0 0,0 10,0 10,0 h 50 c 0,0 0,0 10,0 0,0 0,0 0,0 0,0 0,0 0,0 0,0 0,0 0,0 0,-10 0,-10 0,-10 0,0 0,0 0,0 0,0 0,0 0,0 -10,0 -10,0 -10,0 h -40 v -30 h 40 c 0,0 0,0 0,0 0,0 0,0 0,0 0,0 0,0 0,0 0,-10 0,-10 0,-10 0,0 0,0 0,0 0,0 0,-10 0,-10 0,0 0,0 0,0 0,0 0,0 0,0 h -40 v -30 h 40 c 0,0 10,0 10,0 0,0 0,0 0,0 0,0 0,0 0,0 0,0 0,-10 0,-10"/><path id="path136" style="fill:#231f20;fill-opacity:1;fill-rule:nonzero;stroke:none" d="m 3510,5810 c 0,0 0,0 0,0 0,0 0,0 0,0 0,-10 -10,-10 -10,-10 0,0 0,0 0,0 h -10 c 0,0 0,0 0,0 -10,0 -10,10 -10,10 0,0 0,0 0,0 0,0 0,0 -10,10 l -20,50 c -10,0 -10,10 -10,10 0,0 0,10 0,10 v 0 c 0,0 0,-10 0,-10 0,-10 0,-10 0,-20 v -50 c 0,0 0,0 0,0 0,-10 0,-10 0,-10 -10,0 -10,0 -10,0 0,0 0,0 0,0 0,0 -10,0 -10,0 0,0 0,0 0,0 0,0 0,0 0,10 0,0 0,0 0,0 v 100 c 0,0 0,0 0,0 0,0 0,0 10,0 h 10 c 0,0 0,0 0,0 0,0 10,0 10,0 0,0 0,0 0,0 0,0 0,0 0,-10 l 30,-40 c 0,0 0,0 0,0 0,-10 0,-10 0,-10 0,0 0,-10 10,-10 0,0 0,0 0,-10 v 0 c 0,10 0,10 0,20 0,0 0,10 0,10 v 50 c 0,0 0,0 0,0 0,0 0,0 0,0 0,0 0,0 0,0 10,0 10,0 10,0 0,0 0,0 0,0 10,0 10,0 10,0 0,0 0,0 0,0 0,0 0,0 0,0 v -100"/><path id="path138" style="fill:#231f20;fill-opacity:1;fill-rule:nonzero;stroke:none" d="m 3620,5810 c 0,0 0,0 0,0 0,0 0,0 0,0 0,-10 0,-10 0,-10 0,0 0,0 0,0 h -10 c -10,0 -10,0 -10,0 0,0 0,10 0,10 0,0 -10,0 -10,0 0,0 0,0 0,10 l -30,50 c 0,0 0,10 0,10 0,0 -10,10 -10,10 v 0 c 0,0 0,-10 0,-10 0,-10 0,-10 0,-20 v -50 c 0,0 0,0 0,0 0,-10 0,-10 0,-10 0,0 0,0 0,0 0,0 0,0 -10,0 0,0 0,0 0,0 0,0 0,0 -10,0 0,0 0,0 0,10 0,0 0,0 0,0 v 100 c 0,0 0,0 10,0 0,0 0,0 0,0 h 10 c 10,0 10,0 10,0 0,0 0,0 0,0 0,0 0,0 10,0 0,0 0,0 0,-10 l 20,-40 c 0,0 0,0 0,0 10,-10 10,-10 10,-10 0,0 0,-10 0,-10 0,0 0,0 0,-10 v 0 c 0,10 0,10 0,20 0,0 0,10 0,10 v 50 c 0,0 0,0 0,0 10,0 10,0 10,0 0,0 0,0 0,0 0,0 0,0 0,0 10,0 10,0 10,0 0,0 0,0 0,0 0,0 0,0 0,0 0,0 0,0 0,0 v -100"/><path id="path140" style="fill:#231f20;fill-opacity:1;fill-rule:nonzero;stroke:none" d="m 3710,5810 c 0,0 0,0 0,0 0,0 0,0 0,0 0,-10 0,-10 0,-10 0,0 0,0 0,0 h -50 c -10,0 -10,0 -10,10 0,0 0,0 0,0 v 100 c 0,0 0,0 0,0 0,0 0,0 10,0 h 50 c 0,0 0,0 0,0 0,0 0,0 0,0 0,0 0,0 0,0 0,0 0,0 0,0 0,-10 0,-10 0,-10 0,0 0,0 0,0 0,0 0,0 0,0 0,0 0,0 0,0 h -40 v -30 h 30 c 10,0 10,0 10,0 0,0 0,0 0,0 0,0 0,0 0,0 0,-10 0,-10 0,-10 0,0 0,0 0,0 0,0 0,-10 0,-10 0,0 0,0 0,0 0,0 0,0 -10,0 h -30 v -30 h 40 c 0,0 0,0 0,0 0,0 0,0 0,0 0,0 0,0 0,0 0,0 0,-10 0,-10"/></g></g><metadata id="metadata947"><rdf:RDF><cc:Work rdf:about=""><dc:title/></cc:Work></rdf:RDF></metadata></svg>