<?xml version="1.0" encoding="UTF-8" standalone="no"?>
<!-- Generator: Adobe Illustrator 16.0.0, SVG Export Plug-In . SVG Version: 6.00 Build 0)  -->

<svg
   xmlns:dc="http://purl.org/dc/elements/1.1/"
   xmlns:cc="http://creativecommons.org/ns#"
   xmlns:rdf="http://www.w3.org/1999/02/22-rdf-syntax-ns#"
   xmlns:svg="http://www.w3.org/2000/svg"
   xmlns="http://www.w3.org/2000/svg"
   xmlns:sodipodi="http://sodipodi.sourceforge.net/DTD/sodipodi-0.dtd"
   xmlns:inkscape="http://www.inkscape.org/namespaces/inkscape"
   version="1.1"
   id="Calque_1"
   x="0px"
   y="0px"
   width="50.539425"
   height="55.659695"
   viewBox="0 0 50.539425 55.659695"
   enable-background="new 0 0 128 128"
   xml:space="preserve"
   inkscape:version="0.91 r13725"
   sodipodi:docname="logoNOC.svg"><metadata
     id="metadata15"><rdf:RDF><cc:Work
         rdf:about=""><dc:format>image/svg+xml</dc:format><dc:type
           rdf:resource="http://purl.org/dc/dcmitype/StillImage" /><dc:title></dc:title></cc:Work></rdf:RDF></metadata><defs
     id="defs13" /><sodipodi:namedview
     pagecolor="#ffffff"
     bordercolor="#666666"
     borderopacity="1"
     objecttolerance="10"
     gridtolerance="10"
     guidetolerance="10"
     inkscape:pageopacity="0"
     inkscape:pageshadow="2"
     inkscape:window-width="1680"
     inkscape:window-height="1026"
     id="namedview11"
     showgrid="false"
     fit-margin-top="0"
     fit-margin-left="0"
     fit-margin-right="0"
     fit-margin-bottom="0"
     inkscape:zoom="1.84375"
     inkscape:cx="-17.034374"
     inkscape:cy="2.8806959"
     inkscape:window-x="0"
     inkscape:window-y="24"
     inkscape:window-maximized="1"
     inkscape:current-layer="Calque_1" /><g
     id="g3"
     transform="matrix(0.53191554,0,0,0.52729016,-8.7723511,-5.9167229)"><g
       id="g5"><path
         d="m 101.981,42.476 c 0,0 -3.571,12.621 -5.618,19.06 0.753,2.739 1.155,5.619 1.155,8.591 0,18.217 -15.115,32.986 -33.761,32.986 -18.646,0 -33.761,-14.77 -33.761,-32.986 0,-17.859 14.523,-32.403 32.659,-32.971 0,-5.651 10e-4,-13.193 10e-4,-13.193 -25.616,0.693 -46.164,21.201 -46.164,46.398 0,25.635 21.27,46.418 47.506,46.418 26.237,0 47.508,-20.783 47.508,-46.418 0.001,-10.465 -3.545,-20.121 -9.525,-27.885 z m -21.363,15.869 10.338,0 6.08,-20.027 0,-27.097 -27.973,0 0,27.096 13.917,0 -2.362,20.028 z"
         id="path7"
         inkscape:connector-curvature="0"
         style="clip-rule:evenodd;fill:#ffffff;fill-rule:evenodd" /></g></g><rect
     display="none"
     width="128"
     height="128"
     id="rect9"
     x="-16.492001"
     y="-11.221"
     style="clip-rule:evenodd;display:none;fill:none;fill-rule:evenodd" /></svg>