<?xml version="1.0" encoding="UTF-8" standalone="no"?>
<!-- Generator: Adobe Illustrator 16.0.0, SVG Export Plug-In . SVG Version: 6.00 Build 0)  -->
<svg xmlns:dc="http://purl.org/dc/elements/1.1/" xmlns:cc="http://creativecommons.org/ns#" xmlns:rdf="http://www.w3.org/1999/02/22-rdf-syntax-ns#" xmlns:svg="http://www.w3.org/2000/svg" xmlns="http://www.w3.org/2000/svg" xmlns:sodipodi="http://sodipodi.sourceforge.net/DTD/sodipodi-0.dtd" xmlns:inkscape="http://www.inkscape.org/namespaces/inkscape" version="1.1" id="Calque_1" x="0px" y="0px" width="337.623px" height="87.333px" viewBox="0 0 337.623 87.333" enable-background="new 0 0 337.623 87.333" xml:space="preserve" inkscape:version="0.48.4 r9939" sodipodi:docname="netoCentreGIP.svg"><metadata id="metadata39"><rdf:RDF><cc:Work rdf:about=""><dc:format>image/svg+xml</dc:format><dc:type rdf:resource="http://purl.org/dc/dcmitype/StillImage"/></cc:Work></rdf:RDF></metadata><defs id="defs37"/><sodipodi:namedview pagecolor="#ffffff" bordercolor="#666666" borderopacity="1" objecttolerance="10" gridtolerance="10" guidetolerance="10" inkscape:pageopacity="0" inkscape:pageshadow="2" inkscape:window-width="772" inkscape:window-height="565" id="namedview35" showgrid="false" inkscape:zoom="0.91226016" inkscape:cx="168.81149" inkscape:cy="43.6665" inkscape:window-x="403" inkscape:window-y="76" inkscape:window-maximized="0" inkscape:current-layer="Calque_1"/><g id="g3" transform="translate(-48,0)"><g id="g5"><path d="m 204.312,28.623 c 0,0 -1.647,5.835 -2.592,8.814 0.348,1.266 0.533,2.597 0.533,3.972 0,8.423 -6.977,15.253 -15.581,15.253 -8.605,0 -15.58,-6.83 -15.58,-15.253 0,-8.258 6.702,-14.983 15.071,-15.247 0,-2.612 10e-4,-6.1 10e-4,-6.1 -11.823,0.321 -21.307,9.804 -21.307,21.456 0,11.854 9.817,21.465 21.925,21.465 12.108,0 21.925,-9.609 21.925,-21.465 0.001,-4.84 -1.635,-9.306 -4.395,-12.895 z m -9.858,7.337 h 4.77 l 2.809,-9.262 V 14.169 h -12.911 v 12.529 h 6.422 l -1.09,9.262 z" id="path7" inkscape:connector-curvature="0" style="fill:#25b2f3"/></g></g><g id="g9" transform="translate(-48,0)"><g id="g11"><path d="m 119.531,45.659 -0.101,0.032 -7.469,-15.281 h -4.783 v 23.924 h 4.783 V 39.07 l 0.101,-0.033 7.469,15.297 h 4.75 V 30.41 h -4.75 v 15.249 z m 14.717,-1.825 h 8.208 v -3.731 h -8.208 V 34.14 h 9.618 v -3.73 h -14.402 v 23.924 h 14.435 v -3.729 h -9.65 v -6.771 l -0.001,0 z m 13.075,-9.694 h 5.472 v 20.194 h 4.768 V 34.14 h 5.505 v -3.73 h -15.744 v 3.73 z m 71.02,0.888 c 0.57,-0.823 1.394,-1.234 2.467,-1.234 1.254,0 2.132,0.348 2.636,1.04 0.505,0.693 0.723,1.825 0.654,3.396 h 4.6 l 0.051,-0.098 c -0.044,-2.662 -0.73,-4.672 -2.057,-6.03 -1.325,-1.358 -3.288,-2.038 -5.884,-2.038 -2.45,0 -4.405,0.764 -5.865,2.292 -1.46,1.527 -2.19,3.678 -2.19,6.449 v 7.146 c 0,2.783 0.757,4.932 2.267,6.45 1.51,1.517 3.531,2.274 6.062,2.274 2.526,0 4.44,-0.666 5.737,-2.004 1.3,-1.338 1.938,-3.319 1.914,-5.949 l -0.05,-0.098 h -4.6 c 0.057,1.576 -0.144,2.691 -0.597,3.344 -0.452,0.652 -1.256,0.979 -2.406,0.979 -1.177,0 -2.068,-0.412 -2.679,-1.232 -0.609,-0.823 -0.915,-2.079 -0.915,-3.768 V 38.76 c 0,-1.665 0.285,-2.91 0.855,-3.732 z m 19.501,8.806 h 8.207 v -3.731 h -8.207 V 34.14 h 9.617 v -3.73 h -14.4 v 23.924 h 14.435 v -3.729 h -9.65 l -0.002,-6.771 0,0 z m 26.124,1.825 -0.102,0.032 -7.47,-15.281 h -4.783 v 23.924 h 4.783 V 39.07 l 0.103,-0.033 7.469,15.297 h 4.75 V 30.41 h -4.75 v 15.249 z m 8.807,-11.519 h 5.474 v 20.194 h 4.767 V 34.14 h 5.505 v -3.73 h -15.744 l -0.002,3.73 0,0 z m 35.657,16.103 V 48.55 c 0,-1.444 -0.276,-2.649 -0.832,-3.614 -0.553,-0.962 -1.456,-1.653 -2.71,-2.07 1.096,-0.535 1.931,-1.256 2.501,-2.159 0.57,-0.904 0.855,-1.98 0.855,-3.229 0,-2.213 -0.687,-3.94 -2.056,-5.183 -1.372,-1.244 -3.261,-1.866 -5.665,-1.866 h -7.972 v 23.907 h 4.766 v -9.513 h 3.457 c 0.929,0 1.644,0.328 2.142,0.985 0.498,0.656 0.745,1.582 0.745,2.775 v 1.627 c 0,0.822 0.052,1.627 0.151,2.414 0.102,0.789 0.347,1.36 0.738,1.711 h 4.936 v -0.347 c -0.393,-0.338 -0.668,-0.884 -0.822,-1.635 -0.156,-0.75 -0.234,-1.452 -0.234,-2.11 z M 302.725,40.22 c -0.504,0.581 -1.242,0.87 -2.216,0.87 h -3.188 v -6.934 h 3.206 c 0.962,0 1.694,0.324 2.198,0.97 0.504,0.646 0.755,1.517 0.755,2.612 0,1.074 -0.251,1.9 -0.755,2.482 z m 15.693,10.385 v -6.771 h 8.208 v -3.731 h -8.208 V 34.14 h 9.616 v -3.73 h -14.399 v 23.924 h 14.435 v -3.729 h -9.652 z" id="path13" inkscape:connector-curvature="0" style="fill:#303030"/></g></g><path d="m 196.026,63.379 c -0.346,0 -0.669,0.067 -0.973,0.203 -0.303,0.137 -0.582,0.334 -0.839,0.596 l 0.888,-4.389 h -1.577 l -2.443,12.225 h 1.362 l 0.329,-1.034 c 0.186,0.376 0.428,0.671 0.729,0.883 0.304,0.212 0.646,0.316 1.026,0.316 0.861,0 1.565,-0.331 2.112,-0.995 0.544,-0.663 0.954,-1.666 1.226,-3.01 l 0.031,-0.164 c 0.268,-1.327 0.223,-2.43 -0.134,-3.311 -0.353,-0.879 -0.934,-1.32 -1.737,-1.32 z m 0.305,4.631 -0.031,0.164 c -0.183,0.884 -0.435,1.566 -0.756,2.05 -0.321,0.484 -0.729,0.726 -1.22,0.726 -0.345,0 -0.621,-0.086 -0.83,-0.255 -0.209,-0.171 -0.354,-0.413 -0.432,-0.725 l 0.815,-4.083 c 0.209,-0.381 0.444,-0.689 0.708,-0.92 0.264,-0.232 0.548,-0.35 0.851,-0.35 0.539,0 0.873,0.305 1.004,0.916 0.133,0.613 0.095,1.437 -0.109,2.477 z m 5.926,1.56 -0.047,-0.008 -0.008,-0.472 -0.182,-5.555 h -1.708 l 0.801,8.455 -0.433,0.846 c -0.156,0.34 -0.354,0.646 -0.593,0.922 -0.236,0.273 -0.488,0.412 -0.756,0.412 -0.051,0 -0.123,-0.008 -0.214,-0.017 -0.092,-0.012 -0.167,-0.021 -0.225,-0.032 l -0.408,1.176 c 0.138,0.037 0.275,0.068 0.421,0.099 0.144,0.028 0.273,0.043 0.396,0.043 0.611,0 1.121,-0.206 1.531,-0.62 0.411,-0.412 0.765,-0.908 1.063,-1.488 l 4.779,-9.793 h -1.707 l -2.71,6.032 z" id="path15" inkscape:connector-curvature="0" style="fill:#303030"/><g id="g17" transform="translate(-48,0)"><path d="m 264.906,60.437 c -1.148,0 -2.129,0.338 -2.936,1.014 -0.806,0.678 -1.349,1.717 -1.625,3.115 l -0.697,3.479 c -0.261,1.296 -0.092,2.309 0.509,3.037 0.602,0.728 1.449,1.093 2.548,1.093 0.902,0 1.688,-0.188 2.351,-0.562 0.664,-0.373 1.194,-0.806 1.591,-1.295 l 0.854,-4.248 h -3.574 l -0.313,1.566 h 1.362 l -0.416,2.046 c -0.161,0.226 -0.355,0.397 -0.586,0.522 -0.229,0.127 -0.537,0.189 -0.919,0.189 -0.559,0 -0.941,-0.179 -1.147,-0.538 -0.205,-0.356 -0.223,-0.963 -0.051,-1.815 l 0.698,-3.498 c 0.151,-0.769 0.415,-1.348 0.792,-1.741 0.375,-0.392 0.798,-0.589 1.269,-0.589 0.508,0 0.854,0.148 1.038,0.445 0.187,0.295 0.222,0.766 0.106,1.408 h 2.083 l 0.025,-0.039 c 0.196,-1.128 0.036,-2.007 -0.483,-2.643 -0.52,-0.63 -1.345,-0.946 -2.479,-0.946 z" id="path19" inkscape:connector-curvature="0" style="fill:#25b2f3"/><polygon points="268.858,72.009 271.06,72.009 273.341,60.6 271.139,60.6 " id="polygon21" style="fill:#25b2f3"/><path d="m 279.761,60.6 h -3.824 l -2.28,11.409 h 2.219 l 0.813,-4.098 h 1.608 c 1.102,0 2.028,-0.318 2.783,-0.955 0.757,-0.637 1.251,-1.537 1.484,-2.701 0.209,-1.063 0.049,-1.938 -0.483,-2.627 -0.533,-0.683 -1.306,-1.028 -2.32,-1.028 z m 0.596,3.672 c -0.104,0.522 -0.313,0.966 -0.627,1.323 -0.313,0.357 -0.672,0.538 -1.073,0.538 h -1.606 l 0.752,-3.755 h 1.608 c 0.438,0 0.733,0.172 0.889,0.511 0.153,0.341 0.172,0.801 0.057,1.383 z" id="path23" inkscape:connector-curvature="0" style="fill:#25b2f3"/><path d="m 293.34,60.609 h -3.582 l -2.28,11.4 h 2.211 l 0.908,-4.537 h 1.473 c 0.403,0 0.679,0.146 0.828,0.443 0.148,0.295 0.163,0.746 0.042,1.353 l -0.157,0.774 c -0.082,0.429 -0.139,0.822 -0.167,1.185 -0.028,0.358 0.027,0.621 0.167,0.782 h 2.289 l 0.031,-0.163 c -0.141,-0.162 -0.211,-0.418 -0.211,-0.765 0,-0.35 0.034,-0.688 0.103,-1.022 l 0.155,-0.808 c 0.131,-0.653 0.111,-1.215 -0.059,-1.682 -0.17,-0.467 -0.502,-0.806 -0.999,-1.015 0.549,-0.251 0.991,-0.584 1.327,-0.999 0.338,-0.416 0.57,-0.943 0.702,-1.588 0.203,-1.034 0.043,-1.852 -0.485,-2.455 -0.527,-0.6 -1.293,-0.903 -2.296,-0.903 z m 0.548,3.486 c -0.104,0.502 -0.299,0.895 -0.583,1.175 -0.285,0.283 -0.615,0.425 -0.992,0.425 h -1.363 l 0.666,-3.308 h 1.372 c 0.412,0 0.693,0.147 0.843,0.438 0.147,0.294 0.168,0.716 0.057,1.27 z" id="path25" inkscape:connector-curvature="0" style="fill:#25b2f3"/><polygon points="300.255,67.001 303.859,67.001 304.213,65.224 300.607,65.224 301.172,62.378 305.411,62.378 305.764,60.6 299.315,60.6 297.034,72.009 303.498,72.009 303.852,70.231 299.605,70.231 " id="polygon27" style="fill:#25b2f3"/><path d="m 310.959,60.437 c -1.096,0 -2.024,0.408 -2.788,1.229 -0.762,0.818 -1.292,1.986 -1.591,3.496 l -0.453,2.271 c -0.271,1.354 -0.095,2.481 0.535,3.386 0.629,0.904 1.482,1.355 2.56,1.355 1.117,0 2.012,-0.338 2.68,-1.016 0.668,-0.678 1.16,-1.672 1.474,-2.982 l -0.016,-0.049 h -2.14 c -0.193,0.785 -0.435,1.359 -0.722,1.724 -0.286,0.362 -0.662,0.545 -1.128,0.545 -0.522,0 -0.874,-0.26 -1.058,-0.782 -0.184,-0.52 -0.179,-1.244 0.016,-2.184 l 0.454,-2.29 c 0.172,-0.872 0.437,-1.578 0.792,-2.116 0.354,-0.54 0.747,-0.811 1.175,-0.811 0.561,0 0.929,0.197 1.107,0.593 0.182,0.396 0.208,0.979 0.084,1.755 h 2.201 c 0.162,-1.273 -0.049,-2.279 -0.634,-3.02 -0.584,-0.735 -1.433,-1.104 -2.548,-1.104 z" id="path29" inkscape:connector-curvature="0" style="fill:#25b2f3"/><polygon points="317.099,60.6 314.82,72.009 317.021,72.009 319.301,60.6 " id="polygon31" style="fill:#25b2f3"/><path d="m 326.695,60.6 h -2.297 l -5.32,11.409 h 2.227 l 1.064,-2.436 h 2.75 l 0.104,2.436 h 2.226 L 326.695,60.6 z m -3.543,7.194 v -0.002 l 1.7,-3.854 0.047,0.008 0.15,3.848 h -1.897 z" id="path33" inkscape:connector-curvature="0" style="fill:#25b2f3"/></g></svg>