<?xml version="1.0" encoding="UTF-8" standalone="no"?>
<svg xmlns:dc="http://purl.org/dc/elements/1.1/" xmlns:cc="http://creativecommons.org/ns#" xmlns:rdf="http://www.w3.org/1999/02/22-rdf-syntax-ns#" xmlns:svg="http://www.w3.org/2000/svg" xmlns="http://www.w3.org/2000/svg" viewBox="0 0 639 370" height="370" width="639" xml:space="preserve" id="svg2" version="1.1"><defs id="defs6"><clipPath id="clipPath72" clipPathUnits="userSpaceOnUse"><path id="path70" d="m 1580,1520 -290,200 -270,-200 z"/></clipPath><radialGradient id="radialGradient82" spreadMethod="pad" gradientTransform="matrix(-123,370,370,123,1390,1340)" gradientUnits="userSpaceOnUse" r="1" cy="0" cx="0" fy="0" fx="0"><stop id="stop74" offset="0" style="stop-opacity:1;stop-color:#0e88d3"/><stop id="stop76" offset="0.276" style="stop-opacity:1;stop-color:#0e88d3"/><stop id="stop78" offset="0.861" style="stop-opacity:1;stop-color:#2253ab"/><stop id="stop80" offset="1" style="stop-opacity:1;stop-color:#2253ab"/></radialGradient><clipPath id="clipPath92" clipPathUnits="userSpaceOnUse"><path id="path90" d="m 1940,1770 -10,30 c 0,30 -10,60 -10,90 -30,100 -70,180 -120,250 -50,70 -120,130 -210,170 -70,40 -190,60 -300,60 l 110,-320 h 340 l -280,-200 110,-330 h 380 c 0,20 0,50 0,80 0,60 0,120 -10,170 z"/></clipPath><radialGradient id="radialGradient102" spreadMethod="pad" gradientTransform="matrix(493,520,520,-493,1330,1750)" gradientUnits="userSpaceOnUse" r="1" cy="0" cx="0" fy="0" fx="0"><stop id="stop94" offset="0" style="stop-opacity:1;stop-color:#0e88d3"/><stop id="stop96" offset="0.276" style="stop-opacity:1;stop-color:#0e88d3"/><stop id="stop98" offset="0.861" style="stop-opacity:1;stop-color:#2253ab"/><stop id="stop100" offset="1" style="stop-opacity:1;stop-color:#2253ab"/></radialGradient><clipPath id="clipPath112" clipPathUnits="userSpaceOnUse"><path id="path110" d="m 1780,1310 c -60,-180 -210,-290 -380,-290 -190,0 -390,170 -380,480 10,100 50,240 100,350 l -274,200 h 334 l 110,320 c -120,0 -230,-20 -319,-60 -85,-40 -154,-100 -207,-170 -53,-70 -91,-150 -115,-250 -23,-90 -35,-190 -35,-290 0,-110 12,-210 35,-300 24,-100 62,-180 115,-250 53,-72 122,-128 207,-169 89,-42 189,-61 319,-61 210,0 380,68 490,210 60,70 120,170 150,280 z"/></clipPath><radialGradient id="radialGradient122" spreadMethod="pad" gradientTransform="matrix(-931,-1060,-1060,931,1060,1510)" gradientUnits="userSpaceOnUse" r="1" cy="0" cx="0" fy="0" fx="0"><stop id="stop114" offset="0" style="stop-opacity:1;stop-color:#0e88d3"/><stop id="stop116" offset="0.132" style="stop-opacity:1;stop-color:#0e88d3"/><stop id="stop118" offset="0.404" style="stop-opacity:1;stop-color:#2253ab"/><stop id="stop120" offset="1" style="stop-opacity:1;stop-color:#2253ab"/></radialGradient></defs><g transform="matrix(1.33,0,0,-1.33,0,370)" id="g10"><g transform="scale(0.1)" id="g12"><path id="path14" style="fill:#2252ab;fill-opacity:1;fill-rule:nonzero;stroke:none" d="m 2650,126 c -10,0 -10,0 -10,0 0,1 0,1 0,1 -10,0 -20,-3 -30,-7 0,-5 -10,-11 -10,-18 -10,-7.2 -10,-14.8 -10,-23 -10,-8.2 -10,-15.6 -10,-22.3 0,-14.5 10,-21.8 20,-21.8 10,0 20,5.8 20,17.3 10,11.5 20,27.6 20,48.8 z m 30,-55.1 c -10,-12.4 -10,-23.3 -10,-32.9 0,-9.5 0,-16.9 0,-22.2 0,-2.2 0,-4 0,-5.5 0,-1.45 0,-3.08 0,-4.85 -10,-1.17 -10,-1.76 -20,-1.76 0,0 -10,0.59 -20,1.76 0,1.58 0,3.44 0,5.65 0,2.1 0,5.4 0,9.7 0,1.8 0,3.6 0,5.6 0,1.9 0,4.2 0,6.8 0,-9.1 -10,-16.6 -20,-22.7 -10,-6.12 -20,-9.17 -30,-9.17 -10,0 -20,4.12 -30,12.37 -10,8.3 -10,19.2 -10,32.7 0,14.8 0,29 10,42.8 0,13.8 10,25.8 20,36.8 10,10 20,19 30,25 10,7 30,10 50,10 0,0 10,-1 20,-2 10,-1 10,-3 20,-5 l -10,-83.1"/><path id="path16" style="fill:#2252ab;fill-opacity:1;fill-rule:nonzero;stroke:none" d="m 2710,157 c 10,1 20,2 30,2 0,0 10,-1 20,-2 l 10,-111.4 30,71.4 c 10,10 10,17 10,23 0,5 0,10 0,14 v 3 c 10,1 10,1 10,2 10,0 10,0 20,0 10,0 10,-1 20,-2 v -1 c 0,-5 0,-10 0,-17 -10,-6 -10,-15 -10,-25 L 2790,4.87 c -10,-0.59 -10,-0.98 -20,-1.18 0,-0.2 0,-0.3 -10,-0.3 0,0 0,0 -10,0.15 0,0.11 -10,0.55 -10,1.33 L 2710,157"/><path id="path18" style="fill:#2252ab;fill-opacity:1;fill-rule:nonzero;stroke:none" d="m 2920,92.7 c 10,1.2 20,2.7 20,4.6 10,1.8 10,3.7 10,5.7 10,3 10,5 10,7 0,3 0,5 0,7 0,4 0,7 0,10 -10,2 -10,3 -10,3 -10,0 -10,-1 -20,-3 0,-2 0,-5 -10,-9 0,-4 0,-8 -10,-13 0,-5 0,-9.7 0,-14.6 z m -10,-30.1 c 0,-9.4 0,-16.4 10,-21 0,-4.7 10,-7 20,-7 10,0 10,0.9 20,2.5 10,1.7 10,3.9 20,6.7 0,-3.9 0,-8.7 10,-14.3 0,-5.6 0,-11.6 0,-17.9 -10,-1.5 -10,-2.95 -10,-4.22 -10,-1.29 -10,-2.37 -20,-3.24 0,-0.89 -10,-1.58 -10,-2.08 -10,-0.48 -10,-0.73 -20,-0.73 -10,0 -20,1.48 -30,4.43 0,2.94 -10,7.14 -20,12.54 0,5.4 -10,12 -10,19.7 0,7.8 0,16.4 0,25.8 0,12 0,23.8 0,35.4 10,11.8 10,21.8 20,30.8 10,9 20,17 30,22 10,6 20,9 30,9 10,0 20,-1 20,-3 10,-1 10,-4 20,-7 0,-3 0,-7 10,-12 0,-4 0,-10 0,-16 0,-9 0,-17 -10,-23.2 0,-6.5 -10,-12 -10,-16.5 -10,-4.6 -20,-8.2 -30,-11.1 0,-2.8 -10,-4.9 -20,-6.3 l -20,-3.3"/><path id="path20" style="fill:#2252ab;fill-opacity:1;fill-rule:nonzero;stroke:none" d="m 3120,41.1 c 0,-3.5 0,-7.7 0,-12.7 0,-4.9 0,-11.3 0,-19.4 0,-2.76 -10,-4.72 -20,-5.9 0,-1.18 -10,-1.77 -20,-1.77 -20,0 -40,5.45 -50,16.37 -10,10.9 -10,25.9 -10,44.9 0,11.6 0,23.3 0,35 10,11.4 10,22.4 20,31.4 10,9 20,17 30,23 10,6 20,9 30,9 10,0 20,-1 20,-2 10,-1 20,-2 20,-4 0,-5 0,-11 0,-17 0,-6 0,-11 -10,-16 0,1 -10,3 -10,4 0,1 -10,1 -10,1 -10,0 -20,-2 -20,-5 -10,-3 -20,-8 -20,-14 0,-5 -10,-11.6 -10,-18.8 0,-7.3 0,-14.9 0,-22.7 0,-10.8 0,-18.8 10,-23.9 0,-5.1 10,-7.7 20,-7.7 0,0 10,0.4 10,1.2 10,0.8 10,2.5 20,5"/><path id="path22" style="fill:#2252ab;fill-opacity:1;fill-rule:nonzero;stroke:none" d="m 3240,163 c 0,11 0,20 0,27 10,8 10,15 10,20 0,2 0,4 0,5 0,2 0,4 -10,5 10,1 10,1 20,2 0,0 0,0 10,0 0,0 10,0 20,-2 0,-3 0,-6 0,-11 0,-4 0,-9 0,-14 0,-5 0,-11 -10,-17 L 3260,59.1 c 0,-3.3 0,-6.1 0,-8.2 0,-3.2 0,-5.7 0,-7.4 0,-1.8 0,-3.2 10,-4.1 0,-1 0,-1.7 0,-2 0,-0.3 0,-0.4 10,-0.4 0,0 0,0.1 0,0.4 0,0.3 0,0.8 10,1.4 0,-3.4 0,-7 0,-10.9 0,-4 0,-8 0,-12.1 0,-1.6 0,-3.1 0,-4.4 0,-1.42 0,-2.9 0,-4.47 0,-1.17 -10,-2.11 -10,-2.79 -10,-0.7 -10,-1.04 -20,-1.04 -10,0 -20,3.29 -30,9.9 -10,6.6 -10,16.9 -10,31.1 0,2.7 0,5.6 0,8.7 0,3 0,6.2 0,9.6 l 20,100.6"/><path id="path24" style="fill:#2252ab;fill-opacity:1;fill-rule:nonzero;stroke:none" d="m 3370,92.7 c 0,1.2 10,2.7 20,4.6 0,1.8 0,3.7 10,5.7 0,3 0,5 0,7 0,3 0,5 0,7 0,4 0,7 0,10 0,2 -10,3 -10,3 -10,0 -10,-1 -10,-3 -10,-2 -10,-5 -20,-9 0,-4 0,-8 0,-13 -10,-5 -10,-9.7 -10,-14.6 z m -20,-30.1 c 0,-9.4 0,-16.4 10,-21 0,-4.7 10,-7 20,-7 10,0 20,0.9 20,2.5 10,1.7 20,3.9 20,6.7 0,-3.9 10,-8.7 10,-14.3 0,-5.6 0,-11.6 0,-17.9 0,-1.5 -10,-2.95 -10,-4.22 -10,-1.29 -10,-2.37 -20,-3.24 0,-0.89 -10,-1.58 -10,-2.08 0,-0.48 -10,-0.73 -10,-0.73 -10,0 -20,1.48 -30,4.43 -10,2.94 -20,7.14 -20,12.54 -10,5.4 -10,12 -20,19.7 0,7.8 0,16.4 0,25.8 0,12 0,23.8 10,35.4 0,11.8 10,21.8 10,30.8 10,9 20,17 30,22 10,6 20,9 40,9 0,0 10,-1 20,-3 0,-1 10,-4 10,-7 0,-3 10,-7 10,-12 0,-4 0,-10 0,-16 0,-9 0,-17 0,-23.2 -10,-6.5 -10,-12 -20,-16.5 -10,-4.6 -10,-8.2 -20,-11.1 -10,-2.8 -20,-4.9 -30,-6.3 l -20,-3.3"/><path id="path26" style="fill:#2252ab;fill-opacity:1;fill-rule:nonzero;stroke:none" d="m 3580,296 h 160 c 0,-1 0,-2 0,-3 0,-1 0,-2 0,-3 0,-7 -10,-14 -10,-22 0,-7 0,-14 0,-22 h -100 l -20,-68 h 80 c 0,-9 0,-17 0,-26 0,-8 0,-16 -10,-25 h -70 L 3580,4.87 c -10,-1.62 -20,-2.43 -30,-2.43 -10,0 -20,0.81 -30,2.43 L 3580,296"/><path id="path28" style="fill:#2252ab;fill-opacity:1;fill-rule:nonzero;stroke:none" d="m 3780,296 h 160 c 0,-1 0,-2 0,-3 0,-1 0,-2 0,-3 0,-7 0,-14 0,-22 0,-7 -10,-14 -10,-22 h -100 l -10,-63 h 80 c 0,-16 0,-33 -10,-51 h -80 l -10,-76.9 h 100 c 0,-1 0,-2.1 0,-3 0,-1 0,-2 0,-3 0,-7.4 0,-14.6 0,-21.7 0,-7.2 -10,-14.7 -10,-22.53 H 3730 L 3780,296"/><path id="path30" style="fill:#2252ab;fill-opacity:1;fill-rule:nonzero;stroke:none" d="m 4010,51.9 c 10,-0.8 10,-1.2 20,-1.2 20,0 30,3.1 40,9.3 20,6.2 30,14.9 40,25.9 10,11.1 10,24.1 20,40.1 0,15 10,32 10,51 0,12 -10,23 -10,32 0,10 -10,17 -10,23 -10,6 -20,11 -20,14 -10,3 -20,4 -30,4 -10,0 -10,0 -10,0 -10,0 -10,-1 -10,-1 z M 4000,296 c 10,1 20,2 30,4 10,1 20,1 40,1 20,0 30,-3 50,-8 20,-5 30,-13 40,-23 20,-10 20,-23 30,-38 10,-14 10,-31 10,-50 0,-29 0,-55 -10,-77 C 4180,81.9 4160,62.8 4150,47.4 4130,32 4110,20.3 4090,12.2 4070,4.06 4040,0 4010,0 c -10,0 -20,0.48 -30,1.42 -10,0.95 -20,2.1 -40,3.45 L 4000,296"/><path id="path32" style="fill:#2252ab;fill-opacity:1;fill-rule:nonzero;stroke:none" d="m 4270,296 h 160 c 0,-1 0,-2 0,-3 0,-1 0,-2 0,-3 0,-7 0,-14 0,-22 0,-7 0,-14 -10,-22 h -100 l -10,-63 h 80 c 0,-16 0,-33 -10,-51 h -80 l -10,-76.9 h 100 c 0,-1 0,-2.1 0,-3 0,-1 0,-2 0,-3 0,-7.4 0,-14.6 0,-21.7 0,-7.2 0,-14.7 0,-22.53 H 4220 L 4270,296"/><path id="path34" style="fill:#2252ab;fill-opacity:1;fill-rule:nonzero;stroke:none" d="m 4490,296 c 10,2 20,3 30,4 10,1 20,1 30,1 10,0 30,-1 40,-3 10,-3 20,-7 30,-12 10,-6 20,-14 30,-24 10,-10 10,-23 10,-39 0,-12 0,-23 -10,-33 0,-10 -10,-19 -10,-27 -10,-8 -10,-15 -20,-21 -10,-5 -10,-10 -20,-13 v -3 L 4640,4.87 c -10,-1.62 -20,-2.43 -30,-2.43 -10,0 -20,0.81 -30,2.43 l -50,135.13 10,4 c 0,3 10,6 20,9 0,3 10,8 20,13 0,6 10,13 10,20 10,8 10,18 10,29 0,7 0,13 -10,17 0,5 0,9 -10,12 0,3 0,5 -10,6 -10,2 -10,2 -20,2 0,0 -10,0 -10,-1 L 4500,4.87 c -10,-0.54 -10,-1.02 -20,-1.42 0,-0.41 -10,-0.61 -10,-0.61 -10,0 -10,0.14 -20,0.41 0,0.27 -10,0.81 -10,1.62 L 4490,296"/><path id="path36" style="fill:#fff200;fill-opacity:1;fill-rule:nonzero;stroke:none" d="M 1190,2050 H 843 l 257,-200 -80,-330 270,200 280,-200 -110,330 280,200 h -340 l -110,320 -100,-320"/><path id="path38" style="fill:#2252ab;fill-opacity:1;fill-rule:nonzero;stroke:none" d="m 2740,1490 c 10,10 30,20 60,20 20,0 50,0 70,-10 20,0 30,0 50,-10 20,0 30,-10 30,-20 10,0 10,-10 10,-20 0,-10 0,-20 -10,-20 -10,-10 -20,-20 -30,-20 -10,0 -20,-10 -40,-10 -10,0 -20,0 -20,0 -30,0 -60,0 -80,0 -10,10 -30,10 -40,10 -20,10 -30,30 -30,40 0,20 10,30 30,40 z m 20,490 c 20,10 40,20 70,20 20,0 40,-10 60,-20 10,-20 20,-40 20,-70 0,-20 -10,-40 -30,-60 -10,-10 -30,-20 -50,-20 -30,0 -50,10 -70,20 -10,20 -20,40 -20,60 0,30 10,50 20,70 z m 1100,-490 c 10,10 30,20 60,20 20,0 50,0 70,-10 20,0 30,0 50,-10 20,0 30,-10 30,-20 10,0 10,-10 10,-20 0,-10 0,-20 -10,-20 -10,-10 -20,-20 -30,-20 -10,0 -20,-10 -40,-10 -10,0 -20,0 -20,0 -30,0 -60,0 -80,0 -10,10 -30,10 -40,10 -20,10 -30,30 -30,40 0,20 10,30 30,40 z m 20,490 c 20,10 40,20 70,20 20,0 40,-10 60,-20 10,-20 20,-40 20,-70 0,-20 -10,-40 -30,-60 -10,-10 -30,-20 -50,-20 -30,0 -50,10 -70,20 -10,20 -20,40 -20,60 0,30 10,50 20,70 z m 910,-670 h -680 c 10,0 20,10 40,20 60,30 90,80 90,130 0,40 -10,60 -20,90 -10,20 -30,30 -50,50 -20,10 -40,20 -60,20 -30,10 -50,10 -80,20 -20,0 -50,0 -70,0 -30,0 -60,10 -80,10 -10,0 -20,10 -20,10 0,0 -10,10 -10,10 0,10 10,10 20,20 0,0 10,0 20,0 10,10 20,10 30,10 10,0 10,0 20,0 30,0 60,0 90,10 30,10 60,20 80,30 20,20 40,40 50,70 10,20 20,60 20,100 0,30 -10,60 -20,90 10,10 20,10 40,10 10,0 30,0 40,0 v 120 c -30,0 -60,0 -80,-10 -30,0 -50,-10 -70,-40 -50,40 -90,50 -140,50 -30,0 -60,0 -90,-10 -30,-10 -60,-30 -80,-50 -20,-10 -40,-40 -50,-60 -20,-30 -20,-60 -20,-100 0,-30 0,-60 20,-80 10,-30 30,-50 50,-70 -20,-20 -40,-30 -50,-50 -20,-20 -30,-40 -30,-70 0,-30 20,-70 60,-90 -20,-10 -40,-20 -60,-40 -10,-20 -20,-40 -20,-70 0,-40 10,-70 30,-90 20,-20 40,-30 70,-40 h -790 c 10,0 20,10 40,20 60,30 90,80 90,130 0,40 -10,60 -20,90 -10,20 -30,30 -50,50 -20,10 -40,20 -60,20 -30,10 -50,10 -80,20 -20,0 -50,0 -70,0 -30,0 -60,10 -80,10 -10,0 -20,10 -20,10 0,0 -10,10 -10,10 0,10 10,10 20,20 0,0 10,0 20,0 10,10 20,10 30,10 10,0 10,0 20,0 30,0 60,0 90,10 30,10 60,20 80,30 20,20 40,40 50,70 10,20 20,60 20,100 0,30 -10,60 -20,90 10,10 20,10 40,10 10,0 30,0 40,0 v 120 c -30,0 -60,0 -80,-10 -30,0 -50,-10 -70,-40 -50,40 -90,50 -140,50 -30,0 -60,0 -90,-10 -30,-10 -60,-30 -80,-50 -20,-10 -40,-40 -50,-60 -20,-30 -20,-60 -20,-100 0,-30 0,-60 20,-80 10,-30 30,-50 50,-70 -20,-20 -40,-30 -50,-50 -20,-20 -30,-40 -30,-70 0,-30 20,-70 60,-90 -20,-10 -40,-20 -60,-40 -10,-20 -20,-40 -20,-70 0,-40 10,-70 30,-90 20,-20 40,-30 70,-40 h -740 l -170,-260 -490,-229 3380,-4 c 90,0 150,66 150,147 v 346"/><path id="path40" style="fill:#2252ab;fill-opacity:1;fill-rule:nonzero;stroke:none" d="m 510,1990 h 47 l -42,-130 h 71 l 57,140 v 120 H 510 v -130"/><path id="path42" style="fill:#2252ab;fill-opacity:1;fill-rule:nonzero;stroke:none" d="m 380,1860 c -18,10 -38,10 -58,20 -20,10 -40,20 -60,20 -21,10 -41,20 -60,30 -18,10 -27,20 -27,40 0,20 7,30 22,30 14,10 29,10 45,10 22,0 42,-10 61,-20 19,-10 35,-30 48,-50 l 108,100 c -32,30 -66,60 -101,80 -35,10 -76,20 -125,20 -27,0 -54,0 -79,-10 -25,-10 -48,-20 -66.5,-40 -18.9,-10 -34.2,-30 -45.5,-50 -11.3,-30 -17,-50 -17,-80 0,-60 18.5,-100 55.7,-130 36.3,-30 76.3,-50 119.3,-70 23,0 43,-10 60,-20 16,-10 29,-10 38,-20 15,-10 23,-20 23,-30 0,-10 -3,-20 -7,-30 -5,-10 -11,-10 -18,-20 -7,0 -15,0 -24,0 -9,-10 -17,-10 -25,-10 -15,0 -28,10 -41,10 -13,10 -25,10 -36,20 -11,10 -21,20 -31,30 -9,10 -17,20 -24,30 L 0,1640 c 19.7,-30 38.8,-50 57.4,-70 18.5,-20 38.4,-30 59.6,-40 41,-20 83,-30 127,-30 67,0 121,20 163,50 43,40 65,80 65,130 0,60 -14,100 -42,130 -15,20 -31,30 -50,50"/><path id="path44" style="fill:#2252ab;fill-opacity:1;fill-rule:nonzero;stroke:none" d="m 2160,1940 c 20,20 40,30 60,40 20,10 40,10 60,10 20,0 40,0 40,-20 10,-10 10,-20 10,-30 10,-10 10,-30 10,-50 v -380 h 160 v 410 c 0,30 0,60 -10,80 -10,30 -20,50 -30,70 -20,20 -30,30 -60,40 -20,20 -50,20 -80,20 -30,0 -60,0 -90,-20 -30,-10 -50,-20 -80,-40 v 50 h -150 v -610 h 160 v 430"/><path id="path46" style="fill:#2252ab;fill-opacity:1;fill-rule:nonzero;stroke:none" d="m 3460,1680 c -10,-10 -30,-20 -50,-30 -20,-10 -40,-20 -60,-20 -20,0 -30,0 -40,10 -10,20 -20,30 -20,40 0,20 10,40 20,50 10,10 30,20 50,30 10,10 30,20 50,20 20,0 40,10 50,10 z m -190,250 c 10,20 30,40 50,50 10,20 40,20 70,20 20,0 40,0 50,-10 20,-10 20,-30 20,-50 v -30 c -20,0 -30,-10 -50,-10 -40,-10 -70,-20 -110,-30 -40,-10 -70,-30 -100,-50 -50,-40 -70,-90 -70,-150 0,-30 0,-50 10,-70 10,-20 20,-40 40,-50 10,-20 30,-30 50,-40 20,0 40,-10 70,-10 30,0 60,10 90,20 30,0 50,20 80,30 v -40 h 160 v 380 c 0,80 -20,140 -60,180 -30,40 -90,60 -180,60 -50,0 -90,-10 -130,-30 -40,-20 -80,-50 -100,-90 l 110,-80"/><path id="path48" style="fill:#2252ab;fill-opacity:1;fill-rule:nonzero;stroke:none" d="m 4390,1900 c 0,20 10,50 20,60 20,30 50,50 100,50 40,0 70,-20 90,-50 10,-10 20,-40 20,-60 z m 240,210 c -30,10 -70,20 -120,20 -50,0 -100,-10 -130,-20 -30,-20 -60,-40 -80,-70 -30,-30 -40,-60 -50,-100 -10,-40 -10,-80 -10,-120 0,-50 0,-90 10,-130 10,-30 20,-70 50,-100 20,-20 50,-50 80,-60 30,-20 80,-30 130,-30 80,0 150,30 200,80 20,40 40,70 50,120 h -150 c 0,-10 0,-20 -10,-30 -20,-30 -50,-50 -90,-50 -50,0 -80,20 -100,50 -10,30 -20,70 -30,110 h 50 200 150 c 0,10 0,20 0,40 0,20 0,50 -10,70 v 10 0 c 0,10 0,30 -10,40 -10,40 -20,70 -40,100 -20,30 -50,50 -90,70"/><path id="path50" style="fill:#2252ab;fill-opacity:1;fill-rule:nonzero;stroke:none" d="m 2310,2400 h -190 v 370 h -100 v -460 h 290 v 90"/><path id="path52" style="fill:#2252ab;fill-opacity:1;fill-rule:nonzero;stroke:none" d="m 2240,2610 h 40 l 30,80 v 80 h -80 v -80 h 30 l -20,-80"/><path id="path54" style="fill:#2252ab;fill-opacity:1;fill-rule:nonzero;stroke:none" d="m 2740,2390 h -200 v 110 h 200 v 90 h -200 v 100 h 200 v 80 h -310 v -470 h 310 v 90"/><path id="path56" style="fill:#2252ab;fill-opacity:1;fill-rule:nonzero;stroke:none" d="m 4730,2390 h -200 v 110 h 190 v 90 h -190 v 100 h 190 v 80 h -300 v -470 h 310 v 90"/><path id="path58" style="fill:#2252ab;fill-opacity:1;fill-rule:nonzero;stroke:none" d="m 3310,2690 h 70 c 30,0 40,0 60,-10 0,-10 10,-10 10,-20 0,-10 0,-20 0,-30 0,-10 0,-20 0,-30 -10,0 -20,-10 -20,-10 -10,-10 -20,-10 -30,-10 -10,0 -20,0 -30,0 h -60 z m 0,-200 h 60 l 90,-180 h 120 l -110,200 c 30,10 50,30 70,50 10,20 20,40 20,70 0,20 -10,50 -10,60 -10,20 -20,40 -40,50 -10,10 -30,20 -50,30 -20,0 -40,10 -60,10 h -200 v -470 h 110 v 180"/><path id="path60" style="fill:#2252ab;fill-opacity:1;fill-rule:nonzero;stroke:none" d="m 2970,2300 v 0 c 60,0 110,10 140,40 40,30 50,80 50,140 v 290 h -110 v -290 c 0,-30 -10,-50 -20,-70 -10,-10 -30,-20 -60,-20 -30,0 -40,10 -50,20 -20,20 -20,40 -20,70 v 290 h -120 v -290 c 0,-60 20,-110 50,-140 40,-30 80,-40 140,-40"/><path id="path62" style="fill:#2252ab;fill-opacity:1;fill-rule:nonzero;stroke:none" d="m 3720,2650 c 20,20 40,30 80,30 30,0 50,-10 70,-30 10,-30 20,-60 20,-110 0,-50 -10,-90 -20,-110 -20,-30 -40,-40 -70,-40 -40,0 -60,10 -80,40 -20,20 -20,60 -20,110 0,50 0,80 20,110 z m -90,-280 c 20,-20 40,-40 70,-50 20,-20 60,-20 100,-20 60,0 120,20 150,60 40,40 60,100 60,180 0,30 -10,60 -10,90 -10,30 -20,50 -40,80 -20,20 -40,40 -70,50 -20,10 -60,20 -90,20 -40,0 -80,-10 -100,-20 -30,-10 -50,-30 -70,-50 -20,-30 -30,-50 -40,-80 -10,-30 -10,-60 -10,-90 0,-30 0,-70 10,-90 10,-30 20,-60 40,-80"/><path id="path64" style="fill:#2252ab;fill-opacity:1;fill-rule:nonzero;stroke:none" d="m 4160,2710 h 50 c 10,0 20,0 30,-10 10,0 20,0 30,-10 0,-10 10,-10 10,-20 10,-10 10,-30 10,-40 0,-30 -10,-40 -20,-60 -10,-10 -30,-20 -60,-20 h -20 -30 z m 0,-220 h 50 c 60,0 100,10 130,30 30,30 50,60 50,110 0,30 -10,50 -20,70 0,10 -20,30 -30,40 -20,10 -40,20 -60,30 -20,0 -40,0 -70,0 h -170 v -470 h 120 v 190"/><g id="g66"><g clip-path="url(#clipPath72)" id="g68"><path id="path84" style="fill:url(#radialGradient82);fill-opacity:1;fill-rule:nonzero;stroke:none" d="m 1580,1520 -290,200 -270,-200 z"/></g></g><g id="g86"><g clip-path="url(#clipPath92)" id="g88"><path id="path104" style="fill:url(#radialGradient102);fill-opacity:1;fill-rule:nonzero;stroke:none" d="m 1940,1770 -10,30 c 0,30 -10,60 -10,90 -30,100 -70,180 -120,250 -50,70 -120,130 -210,170 -70,40 -190,60 -300,60 l 110,-320 h 340 l -280,-200 110,-330 h 380 c 0,20 0,50 0,80 0,60 0,120 -10,170"/></g></g><g id="g106"><g clip-path="url(#clipPath112)" id="g108"><path id="path124" style="fill:url(#radialGradient122);fill-opacity:1;fill-rule:nonzero;stroke:none" d="m 1780,1310 c -60,-180 -210,-290 -380,-290 -190,0 -390,170 -380,480 10,100 50,240 100,350 l -274,200 h 334 l 110,320 c -120,0 -230,-20 -319,-60 -85,-40 -154,-100 -207,-170 -53,-70 -91,-150 -115,-250 -23,-90 -35,-190 -35,-290 0,-110 12,-210 35,-300 24,-100 62,-180 115,-250 53,-72 122,-128 207,-169 89,-42 189,-61 319,-61 210,0 380,68 490,210 60,70 120,170 150,280 h -150"/></g></g><path id="path126" style="fill:#fff200;fill-opacity:1;fill-rule:nonzero;stroke:none" d="m 898,1740 -40,120 -39,-120 H 693 l 102,-70 -39,-120 102,70 103,-70 -39,120 98,70 H 898"/><path id="path128" style="fill:#fff200;fill-opacity:1;fill-rule:nonzero;stroke:none" d="m 1910,1740 h -130 l -40,120 -40,-120 h -120 l 100,-70 -40,-120 100,70 110,-70 -40,120 100,70"/><path id="path130" style="fill:#ffffff;fill-opacity:1;fill-rule:nonzero;stroke:none" d="m 2820,1110 c -20,0 -40,-20 -50,-40 h 80 c 0,0 0,0 0,0 0,20 -10,40 -30,40 z m 60,-50 -10,-20 h -100 c 0,-20 20,-48 60,-48 20,0 30,6 50,18 l -10,-37 c -10,-6 -30,-10 -50,-10 -40,0 -80,35 -80,87 0,60 40,90 80,90 40,0 70,-30 70,-60 0,-10 -10,-10 -10,-20"/><path id="path132" style="fill:#ffffff;fill-opacity:1;fill-rule:nonzero;stroke:none" d="m 3030,967 v 113 c 0,10 -10,30 -40,30 -30,0 -40,-20 -40,-30 V 967 h -30 v 173 h 30 v -20 c 10,10 20,20 50,20 30,0 60,-20 60,-60 V 967 h -30"/><path id="path134" style="fill:#ffffff;fill-opacity:1;fill-rule:nonzero;stroke:none" d="m 3270,1110 c -20,0 -50,-20 -50,-60 v -83 h -40 v 173 h 30 v -30 c 10,20 40,30 60,30 l 10,-30 c -10,0 -10,0 -10,0"/><path id="path136" style="fill:#ffffff;fill-opacity:1;fill-rule:nonzero;stroke:none" d="m 3360,1160 -10,20 c 20,0 40,20 60,30 l 10,-20 c -20,-20 -40,-20 -60,-30 z m 20,-50 c -30,0 -50,-20 -50,-40 h 80 c 0,0 0,0 0,0 0,20 -10,40 -30,40 z m 60,-50 -20,-20 h -90 c 0,-20 20,-48 50,-48 20,0 40,6 60,18 l -10,-37 c -10,-6 -30,-10 -50,-10 -50,0 -90,35 -90,87 0,60 50,90 80,90 50,0 70,-30 70,-60 0,-10 0,-10 0,-20"/><path id="path138" style="fill:#ffffff;fill-opacity:1;fill-rule:nonzero;stroke:none" d="m 3540,1110 c -20,0 -40,-10 -40,-30 0,-10 20,-30 40,-30 10,0 30,20 30,30 0,20 -20,30 -30,30 z m 10,-144 -20,8 c -20,0 -40,-14 -40,-33 0,-16 20,-33 50,-33 20,0 40,16 40,29 0,13 -10,23 -30,29 z m -10,-85 c -50,0 -80,26 -80,60 0,26 20,45 40,51 l -20,18 c 0,10 10,20 20,30 -20,10 -20,20 -20,40 0,40 20,60 60,60 0,0 10,0 20,0 0,0 10,-10 20,-10 10,0 10,10 20,10 l 10,-30 c -10,0 -10,0 -20,0 0,-10 10,-20 10,-30 0,-30 -30,-50 -60,-50 -20,0 -20,-10 -20,-10 0,0 0,-10 0,-10 l 40,-16 c 30,-10 50,-27 50,-57 0,-32 -30,-56 -70,-56"/><path id="path140" style="fill:#ffffff;fill-opacity:1;fill-rule:nonzero;stroke:none" d="m 3650,967 v 173 h 30 V 967 Z m 10,203 c 0,0 -20,10 -20,20 0,10 20,20 20,20 10,0 20,-10 20,-20 0,-10 -10,-20 -20,-20"/><path id="path142" style="fill:#ffffff;fill-opacity:1;fill-rule:nonzero;stroke:none" d="m 3800,1110 c -20,0 -50,-20 -50,-60 0,-30 30,-58 50,-58 30,0 60,28 60,58 0,40 -30,60 -60,60 z m 0,-147 c -40,0 -80,36 -80,87 0,50 40,90 80,90 50,0 90,-40 90,-90 0,-51 -40,-87 -90,-87"/><path id="path144" style="fill:#ffffff;fill-opacity:1;fill-rule:nonzero;stroke:none" d="m 4030,967 v 113 c 0,10 -10,30 -40,30 -20,0 -40,-20 -40,-30 V 967 h -30 v 173 h 30 v -20 c 10,10 30,20 50,20 40,0 60,-20 60,-60 V 967 h -30"/><path id="path146" style="fill:#fff200;fill-opacity:1;fill-rule:nonzero;stroke:none" d="m 1400,842 c -230,0 -592,0 -751,458 0,0 155,-832 1101,-832 900,0 3040,0 3040,0 v 500 c 0,-97 -110,-125 -160,-125 60,0 -3000,-1 -3230,-1"/><path id="path148" style="fill:#2252ab;fill-opacity:1;fill-rule:nonzero;stroke:none" d="m 2120,567 c -40,0 -80,26 -80,85 0,60 40,87 80,87 30,0 50,-8 60,-15 v -4 l 10,42 v 2 c -10,7 -40,16 -70,16 -60,0 -130,-45 -130,-128 0,-82 70,-126 130,-126 30,0 40,3 60,12 v 1 l 10,48 -10,-6 c -10,-9 -30,-14 -60,-14"/><path id="path150" style="fill:#2252ab;fill-opacity:1;fill-rule:nonzero;stroke:none" d="m 2250,642 c 0,19 20,30 40,30 10,0 20,-15 30,-30 z m 30,69 c -40,0 -80,-35 -80,-93 0,-52 40,-92 90,-92 20,0 40,4 50,11 v 1 l 10,52 -10,-9 c -10,-11 -30,-15 -50,-15 -30,0 -40,21 -50,39 h 100 l 20,21 v 2 c 0,4 0,9 0,15 0,33 -30,68 -80,68"/><path id="path152" style="fill:#2252ab;fill-opacity:1;fill-rule:nonzero;stroke:none" d="m 2460,711 c -20,0 -30,-5 -40,-14 v 10 h -40 V 530 h 40 v 112 c 0,15 10,30 40,30 20,0 30,-23 30,-30 V 530 h 40 v 115 c 0,39 -30,66 -70,66"/><path id="path154" style="fill:#2252ab;fill-opacity:1;fill-rule:nonzero;stroke:none" d="m 4430,780 c -10,0 -30,-16 -30,-26 0,-9 20,-25 30,-25 0,0 20,16 20,25 0,10 -10,26 -20,26"/><path id="path156" style="fill:#2252ab;fill-opacity:1;fill-rule:nonzero;stroke:none" d="m 4400,530 h 50 v 177 h -50 V 530"/><path id="path158" style="fill:#2252ab;fill-opacity:1;fill-rule:nonzero;stroke:none" d="m 4580,709 v 0 c -20,0 -40,-6 -50,-18 v 16 h -40 V 530 h 40 v 84 c 0,52 40,57 50,57 h 10 l -10,38"/><path id="path160" style="fill:#2252ab;fill-opacity:1;fill-rule:nonzero;stroke:none" d="m 4640,642 c 0,19 20,30 40,30 10,0 20,-15 20,-30 z m 30,69 c -40,0 -80,-35 -80,-93 0,-52 40,-92 90,-92 20,0 40,4 50,11 v 1 l 10,52 -10,-9 c -10,-11 -30,-15 -50,-15 -30,0 -40,21 -50,39 h 100 l 20,21 v 2 c 0,4 0,9 0,15 0,33 -30,68 -80,68"/><path id="path162" style="fill:#2252ab;fill-opacity:1;fill-rule:nonzero;stroke:none" d="m 2620,762 -50,-23 v -32 h -30 v -37 h 30 v -87 c 0,-33 30,-56 60,-56 10,0 10,1 20,2 v 1 l 10,42 -10,-3 c 0,-2 -10,-3 -20,-3 -10,0 -10,4 -10,16 v 88 h 50 v 37 h -50 v 55"/><path id="path164" style="fill:#2252ab;fill-opacity:1;fill-rule:nonzero;stroke:none" d="m 2780,709 v 0 c -20,0 -40,-6 -50,-18 v 16 h -40 V 530 h 40 v 84 c 0,52 40,57 50,57 h 10 l -10,38"/><path id="path166" style="fill:#2252ab;fill-opacity:1;fill-rule:nonzero;stroke:none" d="m 2840,642 c 0,19 20,30 40,30 20,0 30,-15 30,-30 z m 40,69 c -50,0 -90,-35 -90,-93 0,-52 40,-92 90,-92 20,0 40,4 50,11 v 1 l 20,52 -20,-9 c -10,-11 -30,-15 -40,-15 -30,0 -50,21 -50,39 h 90 l 20,21 v 2 c 0,4 0,9 0,15 0,33 -30,68 -70,68"/><path id="path168" style="fill:#2252ab;fill-opacity:1;fill-rule:nonzero;stroke:none" d="m 2990,646 v -38 h 100 l -20,38 h -80"/><path id="path170" style="fill:#2252ab;fill-opacity:1;fill-rule:nonzero;stroke:none" d="m 3220,775 -40,-115 c 0,-12 -10,-26 -10,-42 -10,15 -10,29 -20,42 l -40,115 h -50 l 90,-248 h 20 l 100,248 h -50"/><path id="path172" style="fill:#2252ab;fill-opacity:1;fill-rule:nonzero;stroke:none" d="m 3320,564 c -10,0 -20,8 -20,18 0,9 10,20 20,22 l 30,2 v -9 c 0,-18 -20,-33 -30,-33 z m 70,14 v 67 c 0,40 -30,66 -70,66 -20,0 -40,-5 -50,-15 v -2 l 10,-39 v 5 c 10,7 30,12 40,12 20,0 30,-7 30,-22 v -6 l -30,-3 c -30,-3 -60,-22 -60,-59 0,-27 20,-56 60,-56 10,0 30,6 40,17 0,-8 10,-15 20,-17 v -1 l 30,31 -10,1 c 0,2 -10,10 -10,21"/><path id="path174" style="fill:#2252ab;fill-opacity:1;fill-rule:nonzero;stroke:none" d="m 3480,579 v 223 h -50 V 574 c 0,-30 20,-46 40,-50 v -1 l 30,32 -10,1 c 0,2 -10,10 -10,23"/><path id="path176" style="fill:#2252ab;fill-opacity:1;fill-rule:nonzero;stroke:none" d="m 3680,671 c 20,0 30,-6 40,-12 v -80 c -10,-8 -20,-13 -40,-13 -20,0 -40,22 -40,52 0,31 20,53 40,53 z m 40,32 c -10,4 -20,8 -40,8 -50,0 -90,-39 -90,-93 0,-57 50,-92 90,-92 20,0 30,4 40,12 v -8 h 40 v 272 h -40 v -99"/><path id="path178" style="fill:#2252ab;fill-opacity:1;fill-rule:nonzero;stroke:none" d="m 3830,642 c 10,19 20,30 40,30 20,0 30,-15 30,-30 z m 40,69 c -40,0 -90,-35 -90,-93 0,-52 40,-92 90,-92 20,0 40,4 50,11 l 10,1 10,52 -10,-9 c -20,-11 -30,-15 -50,-15 -30,0 -50,21 -50,39 h 90 l 20,21 v 2 c 0,4 0,9 0,15 0,33 -30,68 -70,68"/><path id="path180" style="fill:#2252ab;fill-opacity:1;fill-rule:nonzero;stroke:none" d="m 4090,775 h -40 V 530 h 140 v 41 h -100 v 204"/><path id="path182" style="fill:#2252ab;fill-opacity:1;fill-rule:nonzero;stroke:none" d="m 4290,566 c -30,0 -50,22 -50,52 0,30 20,53 50,53 20,0 40,-23 40,-53 0,-30 -20,-52 -40,-52 z m 0,145 c -60,0 -90,-39 -90,-93 0,-52 30,-92 90,-92 50,0 90,39 90,92 0,54 -40,93 -90,93"/></g></g><metadata id="metadata1008"><rdf:RDF><cc:Work rdf:about=""><dc:title/></cc:Work></rdf:RDF></metadata></svg>